<?xml version="1.0" encoding="UTF-8"?>
<svg version="1.1" xmlns="http://www.w3.org/2000/svg" width="1049" height="581">
<path d="M0 0 C0.72411072 0.00021149 1.44822144 0.00042297 2.1942749 0.00064087 C14.1829824 0.03548696 25.43699551 1.09647359 37 4.375 C38.88138672 4.86613281 38.88138672 4.86613281 40.80078125 5.3671875 C57.37486494 10.24505961 72.94754286 19.13487562 86 30.375 C86.88816406 31.12523438 87.77632812 31.87546875 88.69140625 32.6484375 C107.81012134 49.28609796 122.51194483 71.77166004 129 96.375 C129.19319824 97.0541748 129.38639648 97.73334961 129.58544922 98.43310547 C135.7073042 120.50676544 135.62582139 147.43796608 129 169.375 C128.76394043 170.15939453 128.52788086 170.94378906 128.28466797 171.75195312 C117.88973707 204.96747701 94.7384011 233.84062713 63.8515625 250.1640625 C30.82540614 266.85418001 -6.48448281 270.32073634 -41.8359375 258.94921875 C-44.29707511 258.10068008 -46.47785659 257.12213038 -48.78662109 255.90039062 C-59.98236601 250.27317482 -70.57079498 250.48010638 -82.875 250.5 C-84.93101491 250.48183675 -86.98700818 250.46102283 -89.04296875 250.4375 C-94.0289232 250.3861365 -99.01379584 250.37053493 -104 250.375 C-104.04123489 251.27731196 -104.08246979 252.17962393 -104.12495422 253.10927868 C-104.75249169 264.87216136 -106.15083989 276.47823377 -107.66796875 288.15551758 C-107.94278788 290.30071023 -108.21715865 292.44596037 -108.49111938 294.59126282 C-109.23015478 300.36780995 -109.97561838 306.14351026 -110.72247696 311.91905046 C-111.50481052 317.97633517 -112.28169033 324.03431961 -113.05932617 330.09220886 C-114.36377855 340.24756312 -115.67229004 350.40238781 -116.98339844 360.55688477 C-118.49989578 372.30239981 -120.01057433 384.04865186 -121.51804256 395.79532892 C-122.97012752 407.10982751 -124.42564495 418.42388172 -125.88296509 429.73770714 C-126.50277234 434.5497228 -127.12148598 439.36187721 -127.73934937 444.17414284 C-128.46539666 449.82741342 -129.19447845 455.48028454 -129.92594528 461.13285637 C-130.19426247 463.21006058 -130.4615469 465.28739848 -130.72774124 467.36487579 C-131.09019653 470.19221304 -131.45634846 473.01904699 -131.82348633 475.84577942 C-131.92883792 476.67435371 -132.03418951 477.502928 -132.14273357 478.3566106 C-132.5530416 481.49060973 -132.99775203 484.36825608 -134 487.375 C-151.49 487.375 -168.98 487.375 -187 487.375 C-186.41077291 479.71504785 -185.81623488 472.17355457 -184.82348633 464.57594299 C-184.65175384 463.23031018 -184.65175384 463.23031018 -184.47655201 461.85749286 C-184.09815709 458.8988087 -183.71511558 455.94074635 -183.33203125 452.98266602 C-183.05736825 450.84276351 -182.7829926 448.70282411 -182.50888062 446.56285095 C-181.76808558 440.78615511 -181.02321566 435.00999146 -180.27752304 429.23392606 C-179.49633435 423.17788055 -178.71872838 417.12137496 -177.94067383 411.06492615 C-176.63485861 400.90440838 -175.32657015 390.7442116 -174.01660156 380.58422852 C-172.33541022 367.54497379 -170.65834182 354.50519224 -168.9825592 341.46524143 C-167.54018098 330.24178585 -166.09588848 319.01857673 -164.65130234 307.79540515 C-164.18756042 304.19187573 -163.72408664 300.58831189 -163.26065063 296.98474312 C-162.53289098 291.32680151 -161.80393666 285.66901503 -161.07405472 280.01134682 C-160.80640206 277.93531957 -160.53912774 275.85924352 -160.27225876 273.78311539 C-159.90805487 270.95033159 -159.54246533 268.11772998 -159.17651367 265.28517151 C-159.07116208 264.46328939 -158.96581049 263.64140726 -158.85726643 262.79461962 C-158.758357 262.03131018 -158.65944757 261.26800074 -158.55754089 260.48156071 C-158.47340533 259.82865372 -158.38926977 259.17574673 -158.30258465 258.50305468 C-157.9163159 255.78645616 -157.45109809 253.08158855 -157 250.375 C-185.38 250.375 -213.76 250.375 -243 250.375 C-241.87672555 234.64915764 -241.87672555 234.64915764 -241.02734375 228.4375 C-240.93997452 227.78346191 -240.85260529 227.12942383 -240.7625885 226.45556641 C-240.49159401 224.42814075 -240.21526096 222.40150883 -239.9375 220.375 C-239.56704433 217.66725943 -239.20198086 214.95886407 -238.83984375 212.25 C-238.67863037 211.07179687 -238.51741699 209.89359375 -238.35131836 208.6796875 C-237.71499618 202.69410233 -238.00675121 198.68285553 -240.375 193.125 C-246.84291217 176.83612205 -247.17696403 158.89047312 -241 142.375 C-239.38370555 138.66098158 -237.53709036 135.10730627 -235.5859375 131.55859375 C-231.91693496 124.19347781 -231.09148767 116.22156566 -229.8203125 108.171875 C-229.26973748 104.87780216 -228.71410384 101.584679 -228.15481758 98.29207993 C-227.57710118 94.87403038 -227.01716616 91.45485897 -226.49511719 88.02783203 C-222.4380112 61.55777944 -222.4380112 61.55777944 -214.8046875 55.140625 C-211.70263672 52.93066406 -211.70263672 52.93066406 -209 51.375 C-208.01 50.715 -207.02 50.055 -206 49.375 C-204.0585804 49.15239334 -204.0585804 49.15239334 -201.81643677 49.19073486 C-200.96444199 49.19980362 -200.1124472 49.20887238 -199.2346344 49.21821594 C-197.83675941 49.24796761 -197.83675941 49.24796761 -196.41064453 49.27832031 C-194.37029291 49.30411557 -192.32993834 49.32967826 -190.2895813 49.3550415 C-188.66370275 49.38039349 -188.66370275 49.38039349 -187.00497818 49.40625763 C-181.25617919 49.48615616 -175.50706363 49.50157587 -169.7578125 49.52734375 C-162.44499062 49.56293038 -155.13406612 49.61755815 -147.82226562 49.74853516 C-141.91123186 49.85272399 -136.00323506 49.88767906 -130.0913353 49.87758636 C-127.84664242 49.8862046 -125.60189272 49.91967328 -123.35797501 49.97928619 C-110.29297755 50.68263137 -110.29297755 50.68263137 -98.88470459 45.36047363 C-96.05372241 42.50772534 -93.71232681 39.40312008 -91.3904686 36.13233185 C-78.83073321 20.25881766 -55.06878464 10.21110834 -36.25 4.5625 C-35.6017627 4.3675293 -34.95352539 4.17255859 -34.28564453 3.97167969 C-22.96429389 0.76928218 -11.71469323 -0.03167402 0 0 Z M-193 79.375 C-195.56511453 90.38721658 -195.56511453 90.38721658 -197 101.375 C-196.41009277 101.23425049 -195.82018555 101.09350098 -195.21240234 100.94848633 C-171.36905573 95.668323 -151.38215878 101.03250694 -131 113.375 C-130.80365967 112.62927734 -130.60731934 111.88355469 -130.4050293 111.11523438 C-129.50343756 107.70068417 -128.59552158 104.28784571 -127.6875 100.875 C-127.37876953 99.70195313 -127.07003906 98.52890625 -126.75195312 97.3203125 C-126.44580078 96.17304687 -126.13964844 95.02578125 -125.82421875 93.84375 C-125.54666748 92.79638672 -125.26911621 91.74902344 -124.9831543 90.66992188 C-123.84166718 86.84436683 -122.40176395 83.1130372 -121 79.375 C-144.76 79.375 -168.52 79.375 -193 79.375 Z " fill="#5FBBD2" transform="translate(916,-0.375)"/>
<path d="M0 0 C1.57810464 0.00028271 3.1562094 0.00012251 4.73431396 -0.0004425 C8.98141355 -0.00072723 13.2284844 0.0051166 17.47557735 0.01213145 C21.92782886 0.01841944 26.38008116 0.01897307 30.83233643 0.02015686 C39.24677692 0.02325421 47.66120428 0.03144592 56.07563901 0.04150635 C65.66219016 0.05271727 75.24874197 0.05819044 84.83529806 0.06320179 C104.54027111 0.07363 124.24523238 0.09119828 143.95019531 0.11352539 C143.11838387 7.03747861 142.28171884 13.96083282 141.44165039 20.88378906 C141.15634721 23.23977307 140.87216219 25.59589277 140.58911133 27.95214844 C140.18245485 31.33572973 139.77180128 34.71880531 139.36035156 38.10180664 C139.23427017 39.15813797 139.10818878 40.2144693 138.97828674 41.30281067 C138.85823776 42.28360092 138.73818878 43.26439117 138.61450195 44.27490234 C138.45794884 45.5706292 138.45794884 45.5706292 138.29823303 46.89253235 C137.95019531 49.11352539 137.95019531 49.11352539 136.95019531 52.11352539 C136.11935488 52.11591374 135.28851444 52.1183021 134.43249702 52.12076283 C114.19179353 52.17996647 93.95120858 52.2555509 73.71063423 52.3492403 C63.92233483 52.39415562 54.13407147 52.43358011 44.34570312 52.45996094 C35.81155097 52.48297556 27.27751327 52.51641225 18.74345195 52.56222695 C14.22709462 52.58611248 9.71085031 52.60487182 5.1944313 52.6111393 C0.93772459 52.61721133 -3.31869311 52.63728724 -7.57529259 52.6678009 C-9.13202719 52.6765473 -10.68879962 52.6803108 -12.24555779 52.67853355 C-24.98268013 52.6685894 -35.68981403 54.19117959 -46.04980469 62.11352539 C-53.81708651 70.01415111 -57.13255189 79.98049828 -57.36230469 90.86352539 C-57.28704756 98.05810633 -56.23770218 103.258595 -51.61230469 108.85180664 C-42.90711704 117.28495717 -30.46401558 118.25663089 -18.95947266 118.27124023 C-17.63328415 118.27886131 -17.63328415 118.27886131 -16.28030396 118.28663635 C-14.36792854 118.29729657 -12.455541 118.30593361 -10.54314804 118.31275558 C-7.49550884 118.32464422 -4.4480051 118.34412772 -1.40042114 118.36587524 C7.26279027 118.42711463 15.92598962 118.48119249 24.58935547 118.51489258 C29.90144431 118.53610356 35.21328776 118.57161955 40.52523422 118.61565018 C42.52859438 118.62961362 44.53199797 118.63848701 46.53540421 118.64170456 C74.38499295 118.69111442 103.92298468 121.62639723 124.95019531 142.11352539 C136.02209149 154.92027854 139.9834905 168.54144286 140.95019531 185.11352539 C141.03140625 186.41290039 141.03140625 186.41290039 141.11425781 187.73852539 C141.91758238 213.44491163 134.173332 239.78605809 116.95019531 259.11352539 C116.28503906 259.8727832 115.61988281 260.63204102 114.93457031 261.41430664 C98.87142826 278.63756451 74.9022338 286.83670935 51.95019531 289.11352539 C49.30389156 289.19827065 46.68569322 289.24496588 44.04077148 289.23377991 C43.286646 289.23463433 42.53252052 289.23548876 41.75554276 289.23636907 C39.25139165 289.23800434 36.7473089 289.23253477 34.24316406 289.22705078 C32.43905133 289.22676846 30.63493848 289.22692752 28.83082581 289.22749329 C23.94921369 289.22777951 19.06762628 289.22191102 14.1860199 289.21491933 C9.07844163 289.2086567 3.97086276 289.20807969 -1.13671875 289.20689392 C-10.80147525 289.20378918 -20.4662204 289.19558735 -30.13097191 289.18554443 C-41.13699244 289.17435667 -52.14301351 289.16886613 -63.14903831 289.163849 C-85.78263339 289.15340402 -108.4162184 289.13582118 -131.04980469 289.11352539 C-130.89392522 286.5425924 -130.73676085 283.97174875 -130.57885742 281.40093994 C-130.53505699 280.67634645 -130.49125656 279.95175297 -130.44612885 279.2052021 C-130.15018851 274.40808614 -129.73701025 269.67442564 -129.11230469 264.91040039 C-129.02730713 264.25444885 -128.94230957 263.59849731 -128.85473633 262.92266846 C-128.6791048 261.57531337 -128.50100945 260.2282769 -128.3203125 258.8815918 C-128.04436445 256.82293962 -127.77700746 254.76329413 -127.51074219 252.70336914 C-126.15390119 242.35605483 -126.15390119 242.35605483 -125.04980469 238.11352539 C-123.70581163 238.10994286 -123.70581163 238.10994286 -122.33466721 238.10628796 C-100.49933485 238.04706553 -78.6641122 237.97146914 -56.82889938 237.87781048 C-46.26940664 237.83290909 -35.70994719 237.79348141 -25.15039062 237.76708984 C-15.94308602 237.74406391 -6.73588729 237.71061469 2.47133327 237.66482383 C7.34322204 237.64095351 12.21500635 237.62218423 17.08695221 237.61591148 C21.68017325 237.60983254 26.27312721 237.58973194 30.86624908 237.55924988 C32.54469951 237.55051447 34.2231849 237.54673766 35.9016571 237.54851723 C50.06946067 237.55878825 65.2304617 236.55116075 75.95019531 226.11352539 C83.20468723 216.88914533 87.30937202 206.95139102 86.95019531 195.11352539 C85.97598035 187.47905239 84.12228639 181.02224601 77.95019531 176.11352539 C65.26981826 167.2976442 48.4271424 167.67815398 33.61603355 167.70283508 C30.63108678 167.70739897 27.64670676 167.69307544 24.66181946 167.67443848 C18.32045332 167.63802423 11.97915047 167.62401531 5.63769531 167.61352539 C-1.71408185 167.60134198 -9.06557575 167.57934036 -16.41722679 167.53352356 C-19.32102274 167.52019787 -22.224437 167.52407813 -25.12825012 167.52893066 C-51.31912667 167.45292415 -76.79335354 163.33601454 -96.04980469 144.11352539 C-96.91412109 143.26661133 -96.91412109 143.26661133 -97.79589844 142.40258789 C-111.02631283 128.31305568 -111.70359266 109.6801004 -111.33496094 91.48071289 C-110.4643595 66.84888483 -101.8049456 42.58142439 -84.04980469 25.11352539 C-60.78586659 4.1792167 -30.10777665 -0.07637064 0 0 Z " fill="#FFFFFF" transform="translate(142.0498046875,197.886474609375)"/>
<path d="M0 0 C17.49 0 34.98 0 53 0 C53 5.91312455 52.86835862 11.31440155 52.08886719 17.1007843 C51.99086193 17.86363163 51.89285667 18.62647895 51.79188156 19.41244286 C51.46561167 21.94146656 51.13124498 24.46935 50.796875 26.99731445 C50.55991153 28.82144625 50.32347538 30.64564662 50.08752441 32.46990967 C49.58000375 36.38584222 49.06899372 40.30129773 48.55529785 44.21642494 C47.74217463 50.41550134 46.93823496 56.61574763 46.13574219 62.81620789 C44.14110731 78.2167913 42.13499602 93.61587708 40.12548828 109.01452637 C38.56346783 120.98487523 37.00487863 132.95564869 35.45679092 144.92780846 C34.66049644 151.08294449 33.85711931 157.23710053 33.04827881 163.39059985 C32.54522603 167.22987196 32.04857596 171.06995293 31.55363464 174.91027832 C31.32411858 176.68102209 31.09200907 178.45143209 30.85700989 180.22145653 C27.36994834 203.15205926 27.36994834 203.15205926 34.6875 224.4375 C41.69851086 232.76091684 51.53860931 235.69548141 62 237 C64.39261752 237.09653158 66.78735815 237.14774559 69.18188477 237.16113281 C69.86267593 237.16609772 70.5434671 237.17106262 71.24488831 237.17617798 C73.47707162 237.19067227 75.70918378 237.19758199 77.94140625 237.203125 C79.09708257 237.20736607 79.09708257 237.20736607 80.27610588 237.21169281 C84.35765799 237.22663764 88.43917522 237.23589541 92.52075195 237.24023438 C96.69729314 237.24569615 100.87350458 237.26968892 105.04994297 237.29820633 C108.29569879 237.31700723 111.54137814 237.32204759 114.78718376 237.32357025 C116.32468393 237.32656075 117.86218396 237.3344642 119.39962959 237.34775543 C135.11249614 237.47384317 151.7879569 235.96423692 163.875 224.75 C174.70674766 212.67958533 177.38323848 197.79577455 179.3046875 182.1875 C179.50639438 180.62007582 179.7091263 179.05278328 179.91278076 177.48561096 C180.46437942 173.21896674 181.0019516 168.95065883 181.53717804 164.68193436 C182.10917046 160.14094444 182.69468298 155.60169806 183.27880859 151.06225586 C184.30154438 143.1008103 185.31628063 135.13837749 186.32617188 127.17529297 C188.4538698 110.40239601 190.60823611 93.63292431 192.76211548 76.8633728 C192.92090368 75.62705297 193.07969189 74.39073315 193.24329185 73.11694908 C193.56261203 70.63075098 193.88195931 68.14455635 194.201334 65.65836525 C195.14844562 58.28288468 196.09247995 50.90701828 197.03377533 43.53079319 C197.62418439 38.90545378 198.21590144 34.2802822 198.80780792 29.6551342 C199.08463546 27.48930686 199.36084554 25.3234005 199.63640594 23.15741158 C200.01463474 20.1848941 200.39501032 17.21265873 200.77587891 14.24047852 C200.88593702 13.37101089 200.99599514 12.50154327 201.10938835 11.60572815 C201.26426562 10.40206604 201.26426562 10.40206604 201.42227173 9.17408752 C201.51030375 8.48399377 201.59833576 7.79390001 201.68903542 7.08289433 C202.0435718 4.70814859 202.5291124 2.35443798 203 0 C220.16 0 237.32 0 255 0 C253.85113549 13.78637409 253.85113549 13.78637409 252.99552917 20.40771484 C252.85147305 21.54736395 252.85147305 21.54736395 252.7045067 22.71003628 C252.38775606 25.21065831 252.06732502 27.71079334 251.74682617 30.2109375 C251.51651495 32.0225724 251.28641322 33.83423393 251.0565033 35.6459198 C250.4349846 40.53723076 249.81002881 45.42809628 249.18403411 50.31883621 C248.79167774 53.38508921 248.39998758 56.4514266 248.00850868 59.51779175 C246.63870974 70.24612182 245.26580159 80.97404945 243.89038086 91.70166016 C242.61490487 101.6504971 241.34672412 111.60024586 240.0818674 121.55043793 C238.99045027 130.13331097 237.89351139 138.71546726 236.79247457 147.29711151 C236.13730057 152.40450087 235.48431406 157.51214518 234.83705711 162.62054443 C234.2269254 167.43461753 233.60983738 172.2477519 232.98777199 177.06029701 C232.76284227 178.80927877 232.54024031 180.55856205 232.32037354 182.30818748 C228.20358457 215.02530341 228.20358457 215.02530341 222.8125 228.8125 C222.51625732 229.5854541 222.22001465 230.3584082 221.91479492 231.15478516 C212.66317488 254.35665447 196.00174279 271.28261514 172.95996094 281.22998047 C154.95858089 288.30227153 136.77123168 289.31523059 117.671875 289.30078125 C115.51157551 289.30467786 113.35127678 289.30901448 111.190979 289.31376648 C106.67921457 289.32119315 102.16752843 289.32096369 97.65576172 289.31567383 C91.91927092 289.30988934 86.18310406 289.32680324 80.44666672 289.3500185 C75.9886696 289.36486537 71.53074849 289.36561266 67.07273102 289.36250877 C64.95996714 289.36301667 62.84719839 289.3681526 60.73445892 289.37832069 C35.33262615 289.48557782 10.59608639 286.47143704 -8.6796875 268.34375 C-23.09606286 253.78175469 -27.10031048 234.72006526 -27.16267514 214.81395346 C-27.09209458 205.96052043 -25.93607602 197.24862777 -24.81542969 188.47827148 C-24.5863957 186.62943429 -24.35815478 184.7804987 -24.1306572 182.93147182 C-23.54566307 178.19845058 -22.9486869 173.46703396 -22.34727287 168.73607397 C-22.01590495 166.12531102 -21.68720533 163.51423026 -21.35975647 160.90297318 C-20.02257303 150.24120423 -18.65983091 139.58283962 -17.28545094 128.92580724 C-16.82967568 125.38994891 -16.37513154 121.85393267 -15.9205358 118.31792253 C-14.85071193 109.99678654 -13.77883586 101.67591683 -12.70556641 93.35522461 C-11.60210663 84.80016235 -10.50243188 76.24461909 -9.40444875 67.68885237 C-8.45194555 60.26778259 -7.49712521 52.84701347 -6.54042888 45.42648309 C-5.97294238 41.02462227 -5.40634065 36.62265227 -4.84201813 32.2203846 C-4.31604833 28.11805306 -3.78719554 24.0161036 -3.25607109 19.91443634 C-3.06192448 18.41128085 -2.8688118 16.90799141 -2.67679787 15.404562 C-2.41526377 13.35808728 -2.1500376 11.31212446 -1.8838501 9.26625061 C-1.66268209 7.54919717 -1.66268209 7.54919717 -1.43704605 5.79745579 C-1 3 -1 3 0 0 Z " fill="#FFFFFF" transform="translate(327,198)"/>
<path d="M0 0 C0.72411072 0.00021149 1.44822144 0.00042297 2.1942749 0.00064087 C14.1829824 0.03548696 25.43699551 1.09647359 37 4.375 C38.25425781 4.70242187 39.50851562 5.02984375 40.80078125 5.3671875 C57.37486494 10.24505961 72.94754286 19.13487562 86 30.375 C86.88816406 31.12523438 87.77632812 31.87546875 88.69140625 32.6484375 C107.81012134 49.28609796 122.51194483 71.77166004 129 96.375 C129.19319824 97.0541748 129.38639648 97.73334961 129.58544922 98.43310547 C135.7073042 120.50676544 135.62582139 147.43796608 129 169.375 C128.76394043 170.15939453 128.52788086 170.94378906 128.28466797 171.75195312 C117.88973707 204.96747701 94.7384011 233.84062713 63.8515625 250.1640625 C31.69145706 266.41651201 -5.74720665 270.72184464 -40.31201172 259.4296875 C-59.23589753 252.90320494 -59.23589753 252.90320494 -61 249.375 C-46.48 249.375 -31.96 249.375 -17 249.375 C-17 246.735 -17 244.095 -17 241.375 C-16.77541237 238.97858133 -16.50671156 236.58590949 -16.1953125 234.19921875 C-16.11127167 233.54854935 -16.02723083 232.89787994 -15.94064331 232.22749329 C-15.76314755 230.8617126 -15.58320047 229.49624838 -15.40087891 228.13110352 C-15.12711719 226.07837519 -14.86175146 224.02469505 -14.59765625 221.97070312 C-13.60520398 214.38045767 -12.37203268 206.92117973 -11 199.375 C-44.99 199.375 -78.98 199.375 -114 199.375 C-113.01 196.405 -112.02 193.435 -111 190.375 C-110.42882929 188.38322521 -109.88279684 186.38386663 -109.375 184.375 C-109.13523437 183.446875 -108.89546875 182.51875 -108.6484375 181.5625 C-107.82633516 177.52132223 -107.39764498 173.47678204 -107 169.375 C-102.89752939 168.32658565 -98.79268221 167.28774123 -94.6875 166.25 C-93.02364258 165.82460938 -93.02364258 165.82460938 -91.32617188 165.390625 C-70.05757469 160.02977311 -48.55167878 155.61340383 -27.11312866 150.99383545 C-7.19320354 146.69699518 12.7228295 142.3797259 32.61566162 137.95907593 C34.72943048 137.49023064 36.84372294 137.02373914 38.95855713 136.5597229 C41.87624729 135.91889614 44.79184019 135.26927499 47.70703125 134.6171875 C48.55218796 134.43334 49.39734467 134.24949249 50.26811218 134.06007385 C57.60972604 132.39904408 64.1776976 130.55168786 69 124.375 C69.88579638 121.69659197 70.46878579 119.37497066 70.9375 116.625 C71.08807861 115.83295166 71.23865723 115.04090332 71.39379883 114.22485352 C71.74105272 112.37766759 72.07838941 110.52860208 72.40820312 108.67822266 C72.96850959 105.55076949 73.55012962 102.42818391 74.13853455 99.30593872 C74.828117 95.64268174 75.50837984 91.97770889 76.1875 88.3125 C76.32010223 87.59912476 76.45270447 86.88574951 76.58932495 86.15075684 C77.21719207 82.75550429 77.8258718 79.35940028 78.38818359 75.95263672 C78.75939947 73.78192745 79.17702566 71.61757489 79.67822266 69.47314453 C80.41655661 65.71626371 80.58400299 63.39499655 78.63965255 59.99907088 C75.04527926 55.63420389 72.42980962 52.86307878 66.65113354 52.25918961 C64.57725434 52.21775195 62.50202673 52.22542082 60.42826843 52.27252197 C59.28015507 52.26271545 58.13204171 52.25290893 56.94913703 52.24280524 C53.11029956 52.22099271 49.27490576 52.2633916 45.4362793 52.30566406 C42.68134344 52.30828517 39.92649894 52.29737033 37.17158508 52.28707886 C30.47226974 52.27020847 23.77398762 52.30106035 17.07484832 52.34794274 C9.27444978 52.40062057 1.47425015 52.40482165 -6.3262985 52.40678951 C-20.24029767 52.41184955 -34.15382666 52.45924963 -48.06762695 52.53125 C-61.57320051 52.60108722 -75.07847587 52.64353395 -88.58422852 52.65429688 C-89.41678928 52.65496518 -90.24935004 52.65563348 -91.10713992 52.65632203 C-92.7843244 52.65764982 -94.46150887 52.65897589 -96.13869334 52.66030024 C-97.37966328 52.66128829 -97.37966328 52.66128829 -98.64570332 52.6622963 C-99.47091168 52.66294425 -100.29612005 52.66359221 -101.14633473 52.66425981 C-114.01518674 52.67535531 -126.8839906 52.70942866 -139.7527898 52.74668749 C-144.41896021 52.75999857 -149.08512609 52.7703111 -153.75130806 52.77855387 C-161.14868304 52.79183888 -168.54588026 52.81511822 -175.94314299 52.85887709 C-179.32377194 52.87872117 -182.70424383 52.89389951 -186.08493423 52.89625931 C-189.74458586 52.90147617 -193.40365416 52.92506924 -197.06318665 52.95367432 C-198.13845669 52.95107487 -199.21372673 52.94847542 -200.32158071 52.9457972 C-201.78616618 52.96308236 -201.78616618 52.96308236 -203.28033924 52.98071671 C-204.54798594 52.98632594 -204.54798594 52.98632594 -205.84124166 52.9920485 C-208.45638134 53.45595946 -209.34631879 54.3503297 -211 56.375 C-211.66 56.045 -212.32 55.715 -213 55.375 C-209.52307712 51.5587634 -206.63139247 49.00815093 -201.3354187 48.7097168 C-199.54206947 48.71718325 -197.74866212 48.75738937 -195.95654297 48.82421875 C-194.47940575 48.8420063 -194.47940575 48.8420063 -192.97242737 48.8601532 C-190.84209685 48.88848187 -188.71190932 48.93001029 -186.58205795 48.9833374 C-183.20017287 49.06349584 -179.82050662 49.09900623 -176.43777466 49.12158203 C-166.8247015 49.19119572 -157.21362729 49.32044469 -147.60253906 49.52880859 C-141.71311022 49.6533383 -135.82626173 49.70861438 -129.93558121 49.72183228 C-127.70191503 49.74044194 -125.4682972 49.78503224 -123.23571396 49.85702515 C-110.24406133 50.64042882 -110.24406133 50.64042882 -98.89361572 45.36938477 C-96.06059947 42.51457786 -93.71719908 39.40709201 -91.39273453 36.13459778 C-78.82832666 20.26057173 -55.07264322 10.21226653 -36.25 4.5625 C-35.6017627 4.3675293 -34.95352539 4.17255859 -34.28564453 3.97167969 C-22.96429389 0.76928218 -11.71469323 -0.03167402 0 0 Z " fill="#FECC00" transform="translate(916,-0.375)"/>
<path d="M0 0 C0.87255053 0.00291284 1.74510105 0.00582568 2.6440925 0.00882679 C4.02357306 0.00754515 4.02357306 0.00754515 5.43092191 0.00623763 C8.53723064 0.00458 11.64348631 0.01010879 14.74979013 0.01555592 C16.9666582 0.01583776 19.18352636 0.01568013 21.40039438 0.01511341 C27.43940687 0.0148253 33.47839969 0.02072421 39.5174076 0.02768737 C45.82085519 0.03391867 52.12430319 0.03452453 58.42775339 0.03571278 C69.01443182 0.03847247 79.60110376 0.04472799 90.18777841 0.05364186 C101.09402804 0.06281528 112.00027571 0.06989645 122.90652841 0.07414967 C123.57833969 0.07441239 124.25015098 0.07467512 124.94232018 0.0749458 C128.31246556 0.0762508 131.68261096 0.07751452 135.05275637 0.0787577 C163.02916526 0.0892236 191.00556605 0.10682433 218.98196787 0.12908131 C218.4528767 5.16083839 217.91964571 10.1921348 217.38284677 15.22307545 C217.20141563 16.92868875 217.02104663 18.63441542 216.84183115 20.34026295 C215.79297418 30.31612317 214.64046749 40.23277162 212.98196787 50.12908131 C183.97536051 50.92233786 154.99899446 51.26030928 125.98196787 51.12908131 C125.94073297 52.03139327 125.89949808 52.93370524 125.85701364 53.86335999 C125.22947617 65.62624267 123.83112798 77.23231508 122.31399912 88.90959889 C122.03917999 91.05479154 121.76480922 93.20004168 121.49084848 95.34534413 C120.75181309 101.12189126 120.00634949 106.89759157 119.25949091 112.67313176 C118.47715735 118.73041648 117.70027754 124.78840092 116.92264169 130.84629017 C115.61818932 141.00164443 114.30967782 151.15646912 112.99856943 161.31096607 C111.48207208 173.05648112 109.97139354 184.80273317 108.4639253 196.54941022 C107.01184034 207.86390882 105.55632291 219.17796302 104.09900278 230.49178845 C103.47919553 235.30380411 102.86048188 240.11595852 102.2426185 244.92822415 C101.51657121 250.58149473 100.78748942 256.23436584 100.05602258 261.88693768 C99.7877054 263.96414188 99.52042097 266.04147979 99.25422662 268.1189571 C98.89177134 270.94629435 98.52561941 273.7731283 98.15848154 276.59986073 C98.05312995 277.42843502 97.94777836 278.2570093 97.83923429 279.11069191 C97.42892626 282.24469103 96.98421584 285.12233738 95.98196787 288.12908131 C78.49196787 288.12908131 61.00196787 288.12908131 42.98196787 288.12908131 C43.57119496 280.46912915 44.16573299 272.92763588 45.15848154 265.3300243 C45.33021403 263.98439149 45.33021403 263.98439149 45.50541586 262.61157417 C45.88381078 259.65289001 46.26685229 256.69482766 46.64993662 253.73674732 C46.92459962 251.59684482 47.19897527 249.45690542 47.47308725 247.31693226 C48.21388229 241.54023642 48.95875221 235.76407277 49.70444483 229.98800737 C50.48563351 223.93196186 51.26323949 217.87545627 52.04129404 211.81900746 C53.34710925 201.65848969 54.65539772 191.49829291 55.9653663 181.33830982 C57.64655764 168.2990551 59.32362604 155.25927355 60.99940866 142.21932274 C62.44178689 130.99586716 63.88607939 119.77265804 65.33066553 108.54948646 C65.79440745 104.94595704 66.25788123 101.3423932 66.72131723 97.73882443 C67.44907688 92.08088282 68.17803121 86.42309633 68.90791315 80.76542813 C69.17556581 78.68940088 69.44284013 76.61332482 69.70970911 74.5371967 C70.073913 71.70441289 70.43950253 68.87181129 70.80545419 66.03925282 C70.91080579 65.21737069 71.01615738 64.39548857 71.12470144 63.54870093 C71.22361087 62.78539149 71.32252029 62.02208205 71.42442697 61.23564202 C71.55063031 60.25628153 71.55063031 60.25628153 71.67938322 59.25713599 C72.06565196 56.54053747 72.53086977 53.83566986 72.98196787 51.12908131 C44.60196787 51.12908131 16.22196787 51.12908131 -13.01803213 51.12908131 C-11.8654711 34.99322685 -11.8654711 34.99322685 -10.86178213 27.92205006 C-10.75458853 27.14517338 -10.64739493 26.3682967 -10.53695303 25.56787831 C-10.31399359 23.96060412 -10.08878545 22.35364021 -9.86129385 20.74700123 C-9.51225039 18.27564443 -9.17295445 15.80307177 -8.83443838 13.33025318 C-8.61495494 11.75660606 -8.39492431 10.18303513 -8.17428213 8.60955006 C-8.07321158 7.87117405 -7.97214102 7.13279804 -7.86800772 6.37204701 C-6.94862829 -0.04347489 -6.46850898 0.01639075 0 0 Z " fill="#FEFEFE" transform="translate(686.0180321335793,198.8709186911583)"/>
<path d="M0 0 C17.49 0 34.98 0 53 0 C49.11399076 31.31839224 49.11399076 31.31839224 47.68701172 42.68701172 C47.58723518 43.48192512 47.48745864 44.27683853 47.38465858 45.09584022 C42.34990515 85.17768481 37.16216469 125.24038216 32.00962961 165.30721223 C30.7083663 175.42658229 29.40828934 185.54610448 28.10851723 195.66566616 C26.53674856 207.90283173 24.96422692 220.13990045 23.3914516 232.37693667 C22.94309955 235.86573007 22.49488238 239.35454078 22.0466938 242.84335518 C21.34693501 248.29013353 20.64666681 253.73684616 19.94600105 259.18350792 C19.68984664 261.17533328 19.43385888 263.16718009 19.17805099 265.15904999 C18.82896335 267.87701244 18.47926472 270.59489562 18.12940979 273.3127594 C18.02883304 274.09694058 17.92825628 274.88112175 17.82463175 275.68906599 C17.73003922 276.42291484 17.63544668 277.15676369 17.53798771 277.91285038 C17.41747613 278.85017273 17.41747613 278.85017273 17.29452997 279.80643088 C16.88269392 282.87365982 16.43766431 285.93634984 16 289 C-1.49 289 -18.98 289 -37 289 C-36.37552961 280.25741456 -35.68933951 271.67753691 -34.55773926 263.01045227 C-34.41466607 261.88988078 -34.27159287 260.76930929 -34.12418413 259.61478108 C-33.64966497 255.90586624 -33.16958021 252.19769467 -32.68945312 248.48950195 C-32.34577588 245.81257721 -32.00240712 243.13561452 -31.65940857 240.45860291 C-30.82764454 233.972646 -29.99168532 227.48723663 -29.15420711 221.00201533 C-28.17851256 213.44544587 -27.20679274 205.88836686 -26.23515683 198.33127465 C-24.50205608 184.8529887 -22.76501095 171.37521399 -21.02587891 157.89770508 C-19.33855005 144.82164496 -17.65459937 131.74515519 -15.97412109 118.66821289 C-14.14163836 104.40845142 -12.30724909 90.14893762 -10.46957159 75.8898446 C-10.27381616 74.37089598 -10.07806194 72.85194721 -9.88230896 71.33299828 C-9.7860008 70.58571225 -9.68969264 69.83842622 -9.59046605 69.06849516 C-8.91159901 63.79998766 -8.23406683 58.53130948 -7.55702209 53.26256752 C-6.73308532 46.85111438 -5.90696629 40.4399469 -5.07804549 34.02913616 C-4.65514454 30.75805385 -4.23353783 27.486814 -3.81388664 24.21531296 C-3.35946346 20.67408475 -2.90135377 17.13335302 -2.44226074 13.59272766 C-2.30967251 12.55267793 -2.17708428 11.51262819 -2.04047823 10.44106179 C-1.91718503 9.49623884 -1.79389184 8.55141588 -1.66686249 7.57796192 C-1.56146259 6.76041866 -1.45606269 5.9428754 -1.34746885 5.1005581 C-1 3 -1 3 0 0 Z " fill="#FFFFFF" transform="translate(615,198)"/>
<path d="M0 0 C10.10793721 0.01155055 20.21587547 0.01676628 30.32381773 0.021703 C50.96961357 0.03191547 71.61539741 0.04927906 92.26118302 0.07202661 C86.91093145 30.40493658 86.91093145 30.40493658 84.26118302 43.07202661 C2.9584293 61.45452527 2.9584293 61.45452527 -24.24443221 67.2023977 C-25.76991619 67.52476945 -27.29538843 67.8471967 -28.82084823 68.16968286 C-29.54676665 68.32306116 -30.27268508 68.47643945 -31.02060103 68.63446558 C-36.73063536 69.84606176 -42.42929232 71.10587925 -48.12553573 72.38062036 C-48.97723342 72.57111963 -49.82893111 72.7616189 -50.70643783 72.95789087 C-54.74608477 73.86267857 -58.78461548 74.77214817 -62.82182479 75.68774927 C-64.23034211 76.00469412 -65.63887012 76.32159151 -67.04741073 76.63843286 C-68.27258407 76.9163064 -69.49775741 77.19417993 -70.76005721 77.48047388 C-73.73881698 78.07202661 -73.73881698 78.07202661 -76.73881698 78.07202661 C-77.16291854 77.03304224 -77.5870201 75.99405786 -78.02397323 74.92358911 C-81.48993167 66.61426543 -85.1310685 59.19386718 -90.73881698 52.07202661 C-91.82162948 50.61796411 -91.82162948 50.61796411 -92.92631698 49.13452661 C-94.63247393 47.00669144 -94.63247393 47.00669144 -96.84819198 45.69702661 C-98.73881698 44.07202661 -98.73881698 44.07202661 -99.08647323 42.22437036 C-97.61358787 30.78428818 -94.26955045 19.64373806 -89.73881698 9.07202661 C-113.16881698 8.74202661 -136.59881698 8.41202661 -160.73881698 8.07202661 C-162.05881698 15.33202661 -163.37881698 22.59202661 -164.73881698 30.07202661 C-170.73881698 33.07202661 -170.73881698 33.07202661 -172.73881698 33.07202661 C-171.72686044 25.45258918 -170.58021346 17.8784197 -169.17631698 10.32202661 C-168.98622054 9.28562036 -168.98622054 9.28562036 -168.79228377 8.22827661 C-167.86276378 3.31992022 -167.86276378 3.31992022 -166.73881698 1.07202661 C-111.15679398 0.23162656 -55.58798066 -0.06474354 0 0 Z " fill="#FECB00" transform="translate(883.7388169765472,70.92797338962555)"/>
<path d="M0 0 C2.74553016 -0.00889967 5.49091728 -0.03117419 8.2363739 -0.05265808 C14.90655118 -0.09642012 21.57583603 -0.09164337 28.24608523 -0.06896933 C33.66871384 -0.05134355 39.09108873 -0.05100314 44.513731 -0.06286049 C45.28687874 -0.06452831 46.06002649 -0.06619613 46.85660295 -0.06791449 C48.4274561 -0.07136447 49.99830918 -0.0748481 51.56916218 -0.07836501 C66.28181376 -0.10916465 80.9939681 -0.08413114 95.70656037 -0.04037759 C108.31997766 -0.00424876 120.93253985 -0.01827715 133.54589844 -0.06835938 C148.20911061 -0.12656893 162.8717998 -0.15196091 177.53512281 -0.12649804 C179.09973895 -0.12388286 180.66435518 -0.12131639 182.22897148 -0.11879921 C182.99870607 -0.11755144 183.76844066 -0.11630367 184.56150054 -0.1150181 C189.97570248 -0.10854667 195.38953514 -0.12559647 200.80366707 -0.151968 C207.40473065 -0.18355854 214.00463066 -0.17952726 220.60560448 -0.13021263 C223.97189879 -0.1059733 227.3345628 -0.10293819 230.70106125 -0.13275909 C251.87473264 -0.3043296 251.87473264 -0.3043296 256.92845917 3.31935406 C260.10475537 6.63350363 262.07345792 9.18486052 262.60799694 13.80291939 C262.47392852 16.38543505 261.94295607 18.67606925 261.30444336 21.18041992 C260.99648661 23.03000561 260.69950285 24.88144493 260.41235352 26.734375 C260.06069612 28.72372353 259.70422215 30.71222527 259.34350586 32.69995117 C259.15227142 33.76154953 258.96103699 34.82314789 258.76400757 35.91691589 C258.36104548 38.14341103 257.95587344 40.36950724 257.54858398 42.59521484 C256.92836859 45.99881802 256.32327799 49.4049027 255.71850586 52.8112793 C255.32359807 54.98267179 254.92779593 57.15390185 254.53100586 59.32495117 C254.35276276 60.33958939 254.17451965 61.3542276 253.99087524 62.39961243 C252.56416904 70.05544522 250.46422059 75.07804895 244.30444336 80.18041992 C241.50131617 81.21302599 238.97574868 81.97645272 236.08959961 82.63354492 C235.26500748 82.83554504 234.44041534 83.03754517 233.59083557 83.2456665 C230.83341723 83.91262197 228.07024044 84.54915869 225.30444336 85.18041992 C224.33802917 85.40431396 223.37161499 85.62820801 222.37591553 85.85888672 C214.84227496 87.59990229 207.2937165 89.27014171 199.74194336 90.93041992 C197.34728791 91.45993011 194.95267591 91.9896368 192.55810547 92.51953125 C177.33020131 95.8832664 162.0863283 99.16798982 146.83129883 102.40615845 C131.34199399 105.69733549 115.9080813 109.20915665 100.4875946 112.80805969 C99.01293544 113.15202046 97.53809802 113.49521805 96.06306458 113.83757019 C93.19602424 114.50311155 90.33117095 115.1738521 87.47290039 115.8762207 C82.78592993 117.00334194 79.29286526 117.18041992 74.30444336 117.18041992 C73.97444336 110.91041992 73.64444336 104.64041992 73.30444336 98.18041992 C83.53004264 95.21988336 93.89418379 93.06049172 104.30444336 90.86791992 C126.21373586 86.23686973 148.06621196 81.36312033 169.91181564 76.44183159 C174.9540241 75.30630801 179.99660658 74.17244598 185.03922081 73.03872585 C189.36501022 72.06595396 193.6904154 71.09152396 198.01513672 70.11401367 C202.27941055 69.15026343 206.5445952 68.19064581 210.81044197 67.2338829 C212.41793649 66.87256641 214.02509369 66.50974561 215.63189507 66.14535904 C217.85447966 65.64154331 220.07818976 65.14302411 222.30224609 64.64575195 C223.56205795 64.36184601 224.82186981 64.07794006 226.11985779 63.78543091 C229.30444336 63.18041992 229.30444336 63.18041992 233.30444336 63.18041992 C233.43399414 62.00866211 233.43399414 62.00866211 233.56616211 60.81323242 C234.64491575 51.9258859 236.17985046 43.16011854 237.86694336 34.36791992 C238.08890381 33.20470215 238.31086426 32.04148437 238.53955078 30.84301758 C240.17582092 22.43766481 240.17582092 22.43766481 241.30444336 20.18041992 C240.46781977 20.18557365 239.63119617 20.19072739 238.76922035 20.19603729 C217.9525766 20.32409431 197.13591695 20.44925292 176.31923866 20.57157135 C166.25049643 20.63079795 156.18176071 20.6908555 146.11303711 20.75317383 C91.50951786 21.09054916 36.90901248 21.25441059 -17.69555664 21.18041992 C-17.89918823 22.45888794 -17.89918823 22.45888794 -18.10693359 23.76318359 C-18.61847787 26.94220506 -19.13954268 30.11948031 -19.66699219 33.29589844 C-19.89279302 34.66767488 -20.11485327 36.04007274 -20.33300781 37.41308594 C-20.64829341 39.39313694 -20.97841896 41.37080673 -21.30883789 43.34838867 C-21.5026001 44.537146 -21.6963623 45.72590332 -21.89599609 46.95068359 C-22.99246849 51.37976248 -24.41696712 54.2426499 -28.11352539 56.95385742 C-29.0274707 57.48237305 -29.94141602 58.01088867 -30.88305664 58.55541992 C-36.81021268 62.14787391 -41.80616656 66.29102984 -46.69555664 71.18041992 C-47.06379198 60.76249374 -44.81031176 50.6409122 -42.97241211 40.42724609 C-42.53868188 37.97577684 -42.12192954 35.52124164 -41.72241211 33.06396484 C-41.14074493 29.49185812 -40.50607821 25.93270817 -39.85961914 22.37182617 C-39.6924942 21.28406387 -39.52536926 20.19630157 -39.35317993 19.07557678 C-38.04037375 12.26578828 -35.80824564 7.57729531 -30.48513031 3.06001759 C-22.01470636 -1.99521436 -9.45084866 -0.0644739 0 0 Z " fill="#FDFDFC" transform="translate(734.695556640625,50.819580078125)"/>
<path d="M0 0 C0.66 0.33 1.32 0.66 2 1 C1.36790115 1.55424149 0.73580231 2.10848297 0.08454895 2.67951965 C-2.25571271 5.28465453 -2.72589002 6.72518088 -3.3527832 10.12768555 C-3.5503421 11.15763641 -3.747901 12.18758728 -3.95144653 13.24874878 C-4.14922699 14.36677887 -4.34700745 15.48480896 -4.55078125 16.63671875 C-4.7706369 17.80872833 -4.99049255 18.98073792 -5.2170105 20.18826294 C-5.9311177 24.01864037 -6.62230243 27.85274839 -7.3125 31.6875 C-7.6741874 33.65831387 -8.03824164 35.62867944 -8.40265751 37.59899044 C-9.96742229 46.06027564 -11.49031973 54.52872089 -13 63 C-13.20185913 64.1305481 -13.40371826 65.26109619 -13.61169434 66.42590332 C-14.82235813 73.21823534 -16.01517857 80.01344681 -17.1875 86.8125 C-17.33579254 87.66935394 -17.48408508 88.52620789 -17.63687134 89.4090271 C-18.04833103 91.79917289 -18.45335426 94.19029754 -18.85546875 96.58203125 C-18.9736496 97.2689505 -19.09183044 97.95586975 -19.21359253 98.66360474 C-20.37896247 105.14733812 -20.37896247 105.14733812 -18.97715759 111.41995239 C-16.51468918 114.82124651 -14.21126945 117.43362267 -10.00609207 118.51070404 C-3.80879045 119.3654569 2.44408335 119.15779048 8.68359375 119.0546875 C10.74218868 119.05058296 12.80079249 119.04975713 14.85939026 119.05203247 C19.1798221 119.04725469 23.49857116 119.01208332 27.81860352 118.95361328 C33.28099771 118.88073035 38.74133335 118.86829523 44.2041378 118.87636948 C76.43479916 118.91798227 76.43479916 118.91798227 108 113 C108.01399635 114.43356567 108.02395656 115.86717111 108.03222656 117.30078125 C108.03820862 118.09911377 108.04419067 118.89744629 108.050354 119.7199707 C107.98653642 122.60963074 107.47938857 125.20659696 106.75 128 C106.40195312 129.3921875 106.40195312 129.3921875 106.046875 130.8125 C104.67485079 134.99000656 102.78580942 138.9819288 101 143 C40.115 143.495 40.115 143.495 -22 144 C-30.97118013 126.05763975 -33.03657775 107.10087328 -26.71533203 87.91259766 C-25.05587029 83.47566137 -22.86502229 79.32874142 -20.5859375 75.18359375 C-16.90741194 67.79936141 -15.98861022 59.67997736 -14.609375 51.62109375 C-14.14316213 48.98219451 -13.67579794 46.34352253 -13.20703125 43.70507812 C-12.47254066 39.56406821 -11.74494122 35.42221101 -11.04248047 31.27563477 C-10.58205158 28.56073546 -10.10903549 25.84863191 -9.62164307 23.13844299 C-9.16423134 20.59416259 -8.72476677 18.04657292 -8.30560303 15.49571228 C-7.00147767 8.41522035 -5.77954858 4.45586168 0 0 Z " fill="#61BCD3" transform="translate(701,56)"/>
<path d="M0 0 C1.04204526 3.22266401 0.92357197 5.3356059 0.14453125 8.61328125 C-0.06397461 9.52110352 -0.27248047 10.42892578 -0.48730469 11.36425781 C-0.83390137 12.8236377 -0.83390137 12.8236377 -1.1875 14.3125 C-3.34299782 23.7416693 -5.16139355 33.18223619 -6.74291992 42.72387695 C-6.97072144 44.09032349 -6.97072144 44.09032349 -7.203125 45.484375 C-7.33364258 46.28584961 -7.46416016 47.08732422 -7.59863281 47.91308594 C-8 50 -8 50 -9 53 C0.81705666 53.00842053 10.63336822 52.98352555 20.45022202 52.9197216 C25.01203377 52.89104191 29.57334667 52.87250428 34.13525391 52.87988281 C56.20300383 52.90750262 76.62959669 51.98925519 98 46 C98.68068941 50.53871451 99.11409164 54.84584368 99.0625 59.4375 C99.05347656 60.48808594 99.04445313 61.53867188 99.03515625 62.62109375 C99.01775391 63.79865234 99.01775391 63.79865234 99 65 C99.99 65.33 100.98 65.66 102 66 C78.820592 72.89717881 55.79583863 73.06344506 31.79370117 73.00195312 C26.34369478 72.99000723 20.8971584 73.0521388 15.44782734 73.13218689 C11.20532859 73.183924 6.9636779 73.18970152 2.72090721 73.18240356 C0.71029903 73.18576859 -1.300352 73.20488621 -3.31064415 73.24069214 C-18.74059445 73.48605651 -18.74059445 73.48605651 -24.26783752 69.85067749 C-27.28469421 66.66838815 -29.69521589 64.02546336 -30.3611145 59.60018921 C-30.22387101 56.96162161 -29.61734135 54.57081228 -29 52 C-28.62994276 49.84844882 -28.29715228 47.69249715 -27.96298218 45.53509521 C-27.32820998 41.47498278 -26.62672868 37.42615511 -25.9375 33.375 C-25.65269145 31.68624905 -25.36818375 29.99744733 -25.08398438 28.30859375 C-24.39279092 24.20513549 -23.69752664 20.10238625 -23 16 C-22.01 16 -21.02 16 -20 16 C-17.99933261 14.46732498 -16.13011558 12.91862081 -14.25 11.25 C-10.03667014 7.60562577 -5.91228763 4.61988673 -1 2 C-0.67 1.34 -0.34 0.68 0 0 Z " fill="#9ED6E4" transform="translate(710,103)"/>
<path d="M0 0 C1.14161441 -0.0142989 2.28322882 -0.02859781 3.45943761 -0.04333001 C7.28184512 -0.08362785 11.10299686 -0.08108155 14.92559814 -0.07844543 C17.66742073 -0.09478646 20.40914895 -0.11991406 23.15090942 -0.14437866 C29.82393607 -0.19799935 36.49665972 -0.21827129 43.1698837 -0.22507795 C48.59634779 -0.23066854 54.02270934 -0.24537543 59.44913483 -0.26645851 C74.8466091 -0.3250316 90.24383454 -0.35734628 105.64142069 -0.35767265 C106.47093167 -0.35769564 107.30044265 -0.35771863 108.15509033 -0.35774231 C108.98561854 -0.35775934 109.81614675 -0.35777636 110.67184249 -0.3577939 C124.12777415 -0.35970982 137.58256214 -0.42499778 151.038138 -0.51879366 C164.86644854 -0.6144199 178.69419802 -0.66131775 192.52284741 -0.65816671 C200.28189387 -0.65742444 208.03968073 -0.67677188 215.79842377 -0.74887657 C222.40547618 -0.80993122 229.01074232 -0.8257098 235.61797473 -0.78359135 C238.98743548 -0.76340401 242.35062529 -0.77087493 245.72018814 -0.82141495 C266.98940074 -1.12019619 266.98940074 -1.12019619 272.62601471 3.70274925 C275.53729647 6.7885159 277.59733562 10.08242707 279.60235596 13.80900574 C280.26235596 14.79900574 280.92235596 15.78900574 281.60235596 16.80900574 C281.99206725 22.89007398 281.113566 28.44134756 279.92266846 34.39103699 C279.74984344 35.28586288 279.57701843 36.18068878 279.3989563 37.10263062 C278.84871778 39.9436628 278.2883291 42.78257574 277.72735596 45.62150574 C277.17704366 48.44433242 276.62879439 51.26755355 276.0809021 54.09085083 C275.72825443 55.90138673 275.37305091 57.71142687 275.01516724 59.52093506 C273.9533909 64.90112819 272.98696299 70.28204853 272.22442627 75.71427917 C270.96802913 79.94500424 267.73241588 82.84403336 264.60235596 85.80900574 C264.07641846 86.48705261 263.55048096 87.16509949 263.00860596 87.86369324 C259.26421491 90.89081457 255.1209967 91.48130747 250.47735596 92.49650574 C249.40767578 92.74215271 248.33799561 92.98779968 247.23590088 93.2408905 C234.64507422 96.0984509 222.00382235 98.7417077 209.37457275 101.42326355 C197.98511296 103.84498716 186.6361535 106.38718831 175.30548096 109.07218933 C159.08802771 112.90106699 142.80850358 116.4559275 126.53778076 120.05010986 C120.97536025 121.27997949 115.41627899 122.52361404 109.86016846 123.78166199 C108.60035156 124.0658197 107.34053467 124.34997742 106.0425415 124.64274597 C103.7828273 125.15321741 101.5238173 125.6668211 99.26568604 126.18424988 C98.29268555 126.40330994 97.31968506 126.62237 96.31719971 126.84806824 C95.4934082 127.03578796 94.6696167 127.22350769 93.82086182 127.41691589 C91.60235596 127.80900574 91.60235596 127.80900574 87.60235596 127.80900574 C87.60235596 125.49900574 87.60235596 123.18900574 87.60235596 120.80900574 C91.70482656 119.76059139 95.80967374 118.72174697 99.91485596 117.68400574 C101.02409424 117.40041199 102.13333252 117.11681824 103.27618408 116.82463074 C124.54478127 111.46377884 146.05067717 107.04740957 167.48922729 102.42784119 C187.40915242 98.13100092 207.32518545 93.81373164 227.21801758 89.39308167 C229.33178644 88.92423638 231.4460789 88.45774488 233.56091309 87.99372864 C236.47860324 87.35290188 239.39419615 86.70328073 242.30938721 86.05119324 C243.15454391 85.86734573 243.99970062 85.68349823 244.87046814 85.49407959 C252.212082 83.83304982 258.78005356 81.9856936 263.60235596 75.80900574 C264.48815234 73.13059771 265.07114175 70.8089764 265.53985596 68.05900574 C265.69043457 67.2669574 265.84101318 66.47490906 265.99615479 65.65885925 C266.34340868 63.81167333 266.68074536 61.96260782 267.01055908 60.11222839 C267.57086555 56.98477522 268.15248558 53.86218965 268.7408905 50.73994446 C269.43047295 47.07668747 270.1107358 43.41171463 270.78985596 39.74650574 C270.92245819 39.03313049 271.05506042 38.31975525 271.19168091 37.58476257 C271.81954803 34.18951003 272.42822776 30.79340602 272.99053955 27.38664246 C273.36175543 25.21593318 273.77938161 23.05158062 274.28057861 20.90715027 C275.01891257 17.15026945 275.18635894 14.82900228 273.24200851 11.43307662 C269.64763522 7.06820963 267.03216557 4.29708452 261.25348949 3.69319534 C259.1796103 3.65175769 257.10438268 3.65942656 255.03062439 3.70652771 C253.88251103 3.69672119 252.73439767 3.68691467 251.55149299 3.67681098 C247.71265552 3.65499844 243.87726172 3.69739733 240.03863525 3.7396698 C237.28369939 3.7422909 234.52885489 3.73137607 231.77394104 3.72108459 C225.0746257 3.7042142 218.37634358 3.73506608 211.67720427 3.78194848 C203.87680574 3.8346263 196.07660611 3.83882739 188.27605746 3.84079525 C174.36205829 3.84585529 160.4485293 3.89325537 146.534729 3.96525574 C133.02915544 4.03509296 119.52388008 4.07753969 106.01812744 4.08830261 C105.18556668 4.08897091 104.35300591 4.08963922 103.49521603 4.09032777 C101.81803156 4.09165556 100.14084709 4.09298163 98.46366261 4.09430598 C97.22269268 4.09529402 97.22269268 4.09529402 95.95665264 4.09630203 C95.13144428 4.09694999 94.30623591 4.09759795 93.45602123 4.09826554 C80.58716922 4.10936104 67.71836536 4.1434344 54.84956616 4.18069322 C50.18339575 4.19400431 45.51722986 4.20431684 40.8510479 4.21255961 C33.45367291 4.22584462 26.0564757 4.24912396 18.65921297 4.29288283 C15.27858402 4.31272691 11.89811213 4.32790525 8.51742172 4.33026505 C4.8577701 4.33548191 1.1987018 4.35907497 -2.46083069 4.38768005 C-3.53610073 4.38508061 -4.61137077 4.38248116 -5.71922475 4.37980294 C-7.18381022 4.39708809 -7.18381022 4.39708809 -8.67798328 4.41472244 C-9.94562998 4.42033168 -9.94562998 4.42033168 -11.2388857 4.42605424 C-13.85402538 4.8899652 -14.74396283 5.78433544 -16.39764404 7.80900574 C-17.05764404 7.47900574 -17.71764404 7.14900574 -18.39764404 6.80900574 C-12.86112944 0.52074062 -8.12420338 -0.06588837 0 0 Z " fill="#AF8C05" transform="translate(721.3976440429688,48.19099426269531)"/>
<path d="M0 0 C10.10793721 0.01155055 20.21587547 0.01676628 30.32381773 0.021703 C50.96961357 0.03191547 71.61539741 0.04927906 92.26118302 0.07202661 C86.91093145 30.40493658 86.91093145 30.40493658 84.26118302 43.07202661 C2.9584293 61.45452527 2.9584293 61.45452527 -24.24443221 67.2023977 C-25.76991619 67.52476945 -27.29538843 67.8471967 -28.82084823 68.16968286 C-29.54676665 68.32306116 -30.27268508 68.47643945 -31.02060103 68.63446558 C-36.73063536 69.84606176 -42.42929232 71.10587925 -48.12553573 72.38062036 C-48.97723342 72.57111963 -49.82893111 72.7616189 -50.70643783 72.95789087 C-54.74608477 73.86267857 -58.78461548 74.77214817 -62.82182479 75.68774927 C-64.23034211 76.00469412 -65.63887012 76.32159151 -67.04741073 76.63843286 C-68.27258407 76.9163064 -69.49775741 77.19417993 -70.76005721 77.48047388 C-73.73881698 78.07202661 -73.73881698 78.07202661 -76.73881698 78.07202661 C-76.73881698 77.41202661 -76.73881698 76.75202661 -76.73881698 76.07202661 C-75.08870644 75.69123187 -73.43859573 75.31043789 -71.78848433 74.92964685 C-70.28446346 74.58256191 -68.78044542 74.23546468 -67.27642989 73.88835657 C-62.97749908 72.89623733 -58.67851491 71.90435015 -54.37944198 70.91284692 C-46.19937696 69.02603278 -38.01954592 67.1382638 -29.84173751 65.24168909 C-26.45215142 64.45567154 -23.0623038 63.67078516 -19.67244124 62.88596094 C-18.08790038 62.51878142 -16.50348222 62.15107185 -14.91920638 61.78275049 C-3.97144693 59.23783973 6.99813244 56.80840578 17.98383927 54.43286645 C24.80373276 52.9573097 31.61832005 51.45789856 38.43305802 49.95874536 C42.06530823 49.16145126 45.69765607 48.36460334 49.33003068 47.56787622 C51.82016785 47.02106337 54.31007061 46.47318208 56.79975724 45.92432153 C60.4477299 45.12040682 64.09654811 44.32043679 67.74555802 43.52124536 C68.86097978 43.27444528 69.97640153 43.0276452 71.12562394 42.77336633 C72.1523018 42.54925577 73.17897965 42.3251452 74.23676896 42.09424341 C75.13780351 41.89614572 76.03883805 41.69804803 76.96717668 41.49394739 C79.26118302 41.07202661 79.26118302 41.07202661 82.26118302 41.07202661 C82.37333146 39.85644067 82.4854799 38.64085474 82.60102677 37.38843286 C83.29010482 31.18673045 84.56562408 25.11657464 85.82368302 19.00952661 C86.05764787 17.85774927 86.29161271 16.70597192 86.5326674 15.51929224 C87.10531557 12.70279815 87.68156361 9.88709279 88.26118302 7.07202661 C87.01064732 7.07975721 87.01064732 7.07975721 85.73484826 7.08764398 C65.03784213 7.2154296 44.34082146 7.34060103 23.64378381 7.46317804 C13.63310457 7.52252299 3.62243121 7.58263131 -6.38823104 7.64478052 C-57.83906097 7.96370465 -109.28696429 8.15109511 -160.73881698 8.07202661 C-160.82856795 8.72276147 -160.91831893 9.37349634 -161.01078963 10.04395044 C-161.43392056 12.99559166 -161.89829675 15.93928643 -162.36381698 18.88452661 C-162.50432479 19.90868677 -162.6448326 20.93284692 -162.78959823 21.98804224 C-164.0303624 29.55670371 -164.0303624 29.55670371 -167.76225448 32.27124536 C-170.73881698 33.07202661 -170.73881698 33.07202661 -172.73881698 33.07202661 C-171.72686044 25.45258918 -170.58021346 17.8784197 -169.17631698 10.32202661 C-168.98622054 9.28562036 -168.98622054 9.28562036 -168.79228377 8.22827661 C-167.86276378 3.31992022 -167.86276378 3.31992022 -166.73881698 1.07202661 C-111.15679398 0.23162656 -55.58798066 -0.06474354 0 0 Z " fill="#B08F10" transform="translate(883.7388169765472,70.92797338962555)"/>
<path d="M0 0 C0.33 0 0.66 0 1 0 C0.85572556 1.9584488 0.70948162 3.91675252 0.5625 5.875 C0.48257813 7.06351563 0.40265625 8.25203125 0.3203125 9.4765625 C0 13 0 13 -0.5703125 15.7734375 C-1.28838063 19.38657395 -1.44655263 21.96035942 0.02894592 25.39553833 C2.48453584 28.80459127 4.78564821 31.43153478 8.99363327 32.51180267 C15.19079381 33.36618628 21.44426391 33.15778749 27.68359375 33.0546875 C29.74218868 33.05058296 31.80079249 33.04975713 33.85939026 33.05203247 C38.1798221 33.04725469 42.49857116 33.01208332 46.81860352 32.95361328 C52.28099771 32.88073035 57.74133335 32.86829523 63.2041378 32.87636948 C95.43479916 32.91798227 95.43479916 32.91798227 127 27 C127 29.31 127 31.62 127 34 C111.84253339 39.5843298 97.28124481 40.52859356 81.2890625 40.64453125 C79.77095537 40.65912667 79.77095537 40.65912667 78.22217941 40.67401695 C72.88199689 40.72443623 67.54204612 40.7574451 62.20166016 40.77563477 C56.71002163 40.79779741 51.2210039 40.88056492 45.73023415 40.97675037 C41.47839819 41.04023631 37.22719551 41.05893606 32.97492599 41.065588 C30.95029175 41.07646453 28.92567177 41.10400187 26.90150833 41.14899635 C11.14116536 41.47613971 11.14116536 41.47613971 5.81756592 37.80599976 C3.56235139 35.31244742 1.78768312 32.83771072 0 30 C-1.02864714 28.98661236 -2.06845571 27.98426806 -3.125 27 C-5.95538256 22.47138791 -5.04783283 19.07371685 -4 14 C-3.7628125 12.845 -3.525625 11.69 -3.28125 10.5 C-1.25351124 1.25351124 -1.25351124 1.25351124 0 0 Z " fill="#54A4B8" transform="translate(682,142)"/>
<path d="M0 0 C4 0 8 0 12 0 C13.08474609 -0.01740234 13.08474609 -0.01740234 14.19140625 -0.03515625 C14.97386719 -0.04417969 15.75632812 -0.05320312 16.5625 -0.0625 C17.74005859 -0.07990234 17.74005859 -0.07990234 18.94140625 -0.09765625 C21 0 21 0 23 1 C23 1.66 23 2.32 23 3 C23.804375 2.505 24.60875 2.01 25.4375 1.5 C29.65668322 -0.2764982 33.46892678 -0.8803228 38 0 C39.76953125 1.0859375 39.76953125 1.0859375 41 3 C41.57559228 8.70555843 40.31430326 13.92719477 39 19.4375 C38.80921875 20.26443359 38.6184375 21.09136719 38.421875 21.94335938 C37.95471563 23.96382366 37.47830626 25.98214547 37 28 C34.36 28 31.72 28 29 28 C29.144375 26.741875 29.28875 25.48375 29.4375 24.1875 C30.03816186 18.79870505 30.52550539 13.40116209 31 8 C28.69 8.33 26.38 8.66 24 9 C23.79503906 10.20398438 23.59007812 11.40796875 23.37890625 12.6484375 C23.10693641 14.22398692 22.83479193 15.79950621 22.5625 17.375 C22.42779297 18.1690625 22.29308594 18.963125 22.15429688 19.78125 C21.11328125 25.7734375 21.11328125 25.7734375 20 28 C17.36 28 14.72 28 12 28 C12.2165625 26.1128125 12.2165625 26.1128125 12.4375 24.1875 C13.03816186 18.79870505 13.52550539 13.40116209 14 8 C11.69 8.33 9.38 8.66 7 9 C6.79503906 10.20398438 6.59007812 11.40796875 6.37890625 12.6484375 C6.10693641 14.22398692 5.83479193 15.79950621 5.5625 17.375 C5.42779297 18.1690625 5.29308594 18.963125 5.15429688 19.78125 C4.11328125 25.7734375 4.11328125 25.7734375 3 28 C0.36 28 -2.28 28 -5 28 C-3.65113611 18.58969077 -1.93049016 9.30496258 0 0 Z " fill="#FFFFFF" transform="translate(430,542)"/>
<path d="M0 0 C1.17369141 -0.00386719 1.17369141 -0.00386719 2.37109375 -0.0078125 C4.5625 0.125 4.5625 0.125 7.5625 1.125 C7.8925 0.795 8.2225 0.465 8.5625 0.125 C11.23308851 -0.01615161 13.88682238 0.08252893 16.5625 0.125 C15.58634688 7.51036898 14.30966684 14.79370053 12.6875 22.0625 C12.46368652 23.12585571 12.46368652 23.12585571 12.23535156 24.21069336 C10.88349475 30.06113708 8.95328525 34.54668216 3.7578125 37.9765625 C0.1350409 39.27863445 -2.7189347 39.52490431 -6.5625 39.5 C-8.36074219 39.51160156 -8.36074219 39.51160156 -10.1953125 39.5234375 C-13.60091837 39.10491726 -14.97482105 38.44065335 -17.4375 36.125 C-17.03946439 33.23924181 -16.64740931 32.30310487 -14.375 30.375 C-13.735625 29.9625 -13.09625 29.55 -12.4375 29.125 C-11.756875 29.640625 -11.07625 30.15625 -10.375 30.6875 C-6.55979269 32.55451635 -4.48273674 32.26987832 -0.4375 31.125 C1.07544288 29.18902968 1.07544288 29.18902968 1.5625 27.125 C0.9025 27.455 0.2425 27.785 -0.4375 28.125 C-5.03626684 28.67612923 -8.41537887 28.74253151 -12.4375 26.3125 C-14.99277504 23.51766792 -15.39323488 21.68938022 -15.6875 17.9375 C-15.35647337 12.88934384 -14.50270062 8.35541667 -10.97265625 4.54296875 C-7.22866079 1.36652272 -4.83292724 -0.01587168 0 0 Z M-5.4375 11.125 C-6.83181504 13.91363007 -6.69410094 16.04578868 -6.4375 19.125 C-3.62151813 21.42760759 -3.62151813 21.42760759 -0.4375 21 C2.56419026 20.35907937 2.56419026 20.35907937 4.375 18.5 C5.91751495 15.4149701 6.23442103 12.53702126 6.5625 9.125 C1.37771 5.66847333 -1.53848137 6.39047738 -5.4375 11.125 Z " fill="#FFFFFF" transform="translate(519.4375,541.875)"/>
<path d="M0 0 C0.99 0 1.98 0 3 0 C5.66666667 0 8.33333333 0 11 0 C10.68167581 7.08271322 9.54007267 13.94233865 8.125 20.875 C7.96354492 21.69524658 7.80208984 22.51549316 7.63574219 23.3605957 C6.39151358 29.25256176 4.97972565 33.37222558 0.1875 37.3125 C-5.28868921 40.19717355 -12.01799723 39.7848727 -18 39 C-20.9296875 37.47265625 -20.9296875 37.47265625 -23 36 C-21.79618552 33.50638429 -20.54571278 31.31856917 -19 29 C-18.46375 29.309375 -17.9275 29.61875 -17.375 29.9375 C-13.52590086 31.6594654 -10.38066165 32.34516541 -6.25 31.3125 C-3.6953934 29.82231282 -3.00389575 28.73789749 -2 26 C-2.495 26.33 -2.99 26.66 -3.5 27 C-7.71821039 28.68728416 -12.05572103 28.61398283 -16.375 27.25 C-18.91215928 25.29833901 -19.85338784 23.03009322 -20.30078125 19.88671875 C-20.33313829 13.81438114 -19.50527277 9.14550915 -15.59375 4.234375 C-10.78429553 -0.62045168 -6.55338803 -0.61867649 0 0 Z M-11 12 C-11.58414702 15.62693382 -11.58414702 15.62693382 -11 19 C-10.34 19.66 -9.68 20.32 -9 21 C-5.50278106 21.07216639 -5.50278106 21.07216639 -2 20 C0.45449142 17.22880001 0.95203451 15.48924796 1.3125 11.8125 C1.28143813 8.86497477 1.28143813 8.86497477 -1 7 C-5.98563752 6.05677128 -8.08834257 8.09006002 -11 12 Z " fill="#FFFFFF" transform="translate(604,542)"/>
<path d="M0 0 C26.73 0 53.46 0 81 0 C79 6 79 6 78 7 C75.76070114 7.09436529 73.5183825 7.11742327 71.27709961 7.11352539 C70.5746965 7.11367142 69.8722934 7.11381744 69.14860535 7.1139679 C66.81648722 7.11326872 64.484448 7.10547617 62.15234375 7.09765625 C60.53951562 7.09579208 58.92668693 7.09436818 57.31385803 7.09336853 C53.06084643 7.08954323 48.80786876 7.07971285 44.55487061 7.06866455 C40.2182257 7.05845069 35.88157533 7.05387096 31.54492188 7.04882812 C23.02993231 7.03809059 14.51497037 7.02101403 6 7 C5.91024902 7.65073486 5.82049805 8.30146973 5.72802734 8.97192383 C5.30489641 11.92356505 4.84052023 14.86725982 4.375 17.8125 C4.23449219 18.83666016 4.09398437 19.86082031 3.94921875 20.91601562 C2.70845457 28.4846771 2.70845457 28.4846771 -1.0234375 31.19921875 C-4 32 -4 32 -6 32 C-4.98804347 24.38056257 -3.84139648 16.80639309 -2.4375 9.25 C-2.24740356 8.21359375 -2.24740356 8.21359375 -2.0534668 7.15625 C-1.12394681 2.24789361 -1.12394681 2.24789361 0 0 Z " fill="#030000" transform="translate(717,72)"/>
<path d="M0 0 C3.66666667 0 7.33333333 0 11 0 C11.77214844 -0.04640625 12.54429687 -0.0928125 13.33984375 -0.140625 C20.40145985 -0.4379562 20.40145985 -0.4379562 23.5625 1.875 C26.50410595 6.22346098 26.47371974 9.84829781 26 15 C24.21585544 20.35243368 21.83167003 24.87624748 17.25 28.3125 C12.51686304 29.75873629 7.71683187 29.31608032 3 28 C2.86722656 28.71027344 2.73445312 29.42054688 2.59765625 30.15234375 C2.33275391 31.53099609 2.33275391 31.53099609 2.0625 32.9375 C1.88847656 33.85402344 1.71445312 34.77054688 1.53515625 35.71484375 C1 38 1 38 0 39 C-2.67058851 39.14115161 -5.32432238 39.04247107 -8 39 C-7.23567375 34.74880378 -6.46231925 30.49929524 -5.6875 26.25 C-5.47416016 25.06277344 -5.26082031 23.87554688 -5.04101562 22.65234375 C-3.64340296 15.01762383 -1.98461563 7.50376183 0 0 Z M6 10 C5.07054347 12.96165808 4.48798492 15.93725255 4 19 C6.25168797 21.08489627 7.37736425 22 10.5 22 C13.92304596 20.63078161 15.13772884 19.17275828 17 16 C17.50070321 12.37357334 17.50070321 12.37357334 17 9 C15.18506707 6.77918788 15.18506707 6.77918788 12.625 6.6875 C9.31007067 7.08213444 8.21936617 7.47451436 6 10 Z " fill="#FFFFFF" transform="translate(819,542)"/>
<path d="M0 0 C-0.63949165 6.43754932 -1.61157672 12.718465 -2.84765625 19.06640625 C-3.00391479 19.88298706 -3.16017334 20.69956787 -3.32116699 21.54089355 C-3.89780319 24.54882824 -4.4804934 27.55559982 -5.0625 30.5625 C-6.361875 37.306875 -7.66125 44.05125 -9 51 C15.42 51 39.84 51 65 51 C65 51.66 65 52.32 65 53 C61.40736941 54.19754353 58.14543393 54.13198753 54.4074707 54.11352539 C53.25101547 54.11374443 53.25101547 54.11374443 52.07119751 54.1139679 C49.52269681 54.11327119 46.97426918 54.1054901 44.42578125 54.09765625 C42.65886983 54.09579121 40.8919579 54.09436771 39.12504578 54.09336853 C34.47421847 54.08955012 29.82342239 54.07972558 25.17260742 54.06866455 C20.42692487 54.05843591 15.68123727 54.05386779 10.93554688 54.04882812 C1.6236842 54.03810273 -7.6881553 54.02103439 -17 54 C-14.96523926 38.23164729 -14.96523926 38.23164729 -13.5625 30.96484375 C-13.43689697 30.31222061 -13.31129395 29.65959747 -13.18188477 28.98719788 C-12.92188309 27.64217598 -12.6597877 26.29755697 -12.39550781 24.95336914 C-11.99426102 22.90824892 -11.60223777 20.86149729 -11.2109375 18.81445312 C-10.95366362 17.48947864 -10.69587072 16.16460479 -10.4375 14.83984375 C-10.09525391 13.08208618 -10.09525391 13.08208618 -9.74609375 11.28881836 C-7.76144294 2.54037886 -7.76144294 2.54037886 -5.0625 0.625 C-3 0 -3 0 0 0 Z " fill="#57A6BA" transform="translate(718,102)"/>
<path d="M0 0 C2.89683868 2.2015974 4.39297231 3.78594462 6 7 C6.09472912 8.51845202 6.1298841 10.04110384 6.125 11.5625 C6.12886719 12.77099609 6.12886719 12.77099609 6.1328125 14.00390625 C6 16 6 16 5 17 C3.5112814 17.08669432 2.018555 17.10703494 0.52734375 17.09765625 C-0.37177734 17.09443359 -1.27089844 17.09121094 -2.19726562 17.08789062 C-3.14279297 17.07951172 -4.08832031 17.07113281 -5.0625 17.0625 C-6.01189453 17.05798828 -6.96128906 17.05347656 -7.93945312 17.04882812 C-10.29303065 17.0370011 -12.64648477 17.02052025 -15 17 C-13.7248696 19.04969396 -13.7248696 19.04969396 -12 21 C-7.82064283 21.38697752 -4.06816379 20.98622152 0 20 C0.66 21.98 1.32 23.96 2 26 C-3.72189534 28.9853367 -8.56334606 29.78469916 -15 29 C-20.32531989 27.09810004 -20.32531989 27.09810004 -22.1328125 24.15625 C-23.88411615 19.80165715 -23.6465273 15.29148916 -22.3828125 10.8125 C-20.40616279 6.19448651 -17.75509697 3.27598035 -13.3515625 0.8515625 C-8.90925648 -0.7571131 -4.61889037 -0.92522374 0 0 Z M-11.9375 8.4375 C-13.09371834 9.82289991 -13.09371834 9.82289991 -13 11 C-9.37 11 -5.74 11 -2 11 C-2.33 9.68 -2.66 8.36 -3 7 C-7.76919724 6.54743166 -7.76919724 6.54743166 -11.9375 8.4375 Z " fill="#FFFFFF" transform="translate(870,542)"/>
<path d="M0 0 C3.50037368 3.17221365 3.95114723 5.85172879 4.1875 10.5 C4 13.8125 4 13.8125 3 15.8125 C-3.6 15.8125 -10.2 15.8125 -17 15.8125 C-16.67 17.1325 -16.34 18.4525 -16 19.8125 C-8.94348748 19.96225239 -8.94348748 19.96225239 -2 18.8125 C-1.34 20.4625 -0.68 22.1125 0 23.8125 C-5.46011085 28.29759105 -11.1194992 28.44813784 -18 27.8125 C-21.68623011 26.19977433 -22.75355 25.182175 -25 21.8125 C-25.83945416 16.34279345 -25.72060024 11.24542541 -22.9375 6.375 C-17.28411933 -1.31549269 -8.95771717 -3.54576305 0 0 Z M-15 7.8125 C-15 8.4725 -15 9.1325 -15 9.8125 C-11.37 9.8125 -7.74 9.8125 -4 9.8125 C-4.66 8.4925 -5.32 7.1725 -6 5.8125 C-10.7897321 5.57821687 -10.7897321 5.57821687 -15 7.8125 Z " fill="#FFFFFF" transform="translate(721,543.1875)"/>
<path d="M0 0 C2.89683868 2.2015974 4.39297231 3.78594462 6 7 C6.09472912 8.51845202 6.1298841 10.04110384 6.125 11.5625 C6.12886719 12.77099609 6.12886719 12.77099609 6.1328125 14.00390625 C6 16 6 16 5 17 C3.5112814 17.08669432 2.018555 17.10703494 0.52734375 17.09765625 C-0.37177734 17.09443359 -1.27089844 17.09121094 -2.19726562 17.08789062 C-3.14279297 17.07951172 -4.08832031 17.07113281 -5.0625 17.0625 C-6.01189453 17.05798828 -6.96128906 17.05347656 -7.93945312 17.04882812 C-10.29303065 17.0370011 -12.64648477 17.02052025 -15 17 C-13.7248696 19.04969396 -13.7248696 19.04969396 -12 21 C-7.82064283 21.38697752 -4.06816379 20.98622152 0 20 C0.66 21.65 1.32 23.3 2 25 C-3.42929741 29.3059945 -8.25114175 29.58776993 -15 29 C-20.32531989 27.09810004 -20.32531989 27.09810004 -22.1328125 24.15625 C-23.88411615 19.80165715 -23.6465273 15.29148916 -22.3828125 10.8125 C-20.40616279 6.19448651 -17.75509697 3.27598035 -13.3515625 0.8515625 C-8.90925648 -0.7571131 -4.61889037 -0.92522374 0 0 Z M-13 9 C-13 9.66 -13 10.32 -13 11 C-9.37 11 -5.74 11 -2 11 C-2.33 9.68 -2.66 8.36 -3 7 C-8.32170494 6.70437633 -8.32170494 6.70437633 -13 9 Z " fill="#FFFFFF" transform="translate(370,542)"/>
<path d="M0 0 C3.25 1.4375 3.25 1.4375 5 4 C6.06031149 12.0848751 3.74400358 20.12084097 2 28 C1.31292969 27.98839844 0.62585938 27.97679687 -0.08203125 27.96484375 C-0.98308594 27.95582031 -1.88414062 27.94679688 -2.8125 27.9375 C-3.70582031 27.92589844 -4.59914062 27.91429687 -5.51953125 27.90234375 C-8.13413791 27.88990033 -8.13413791 27.88990033 -11 29 C-18.06542056 29.56074766 -18.06542056 29.56074766 -21.5 27.5 C-23.59568201 24.00719664 -23.73862653 20.91083312 -23 17 C-21.44222203 13.88444407 -20.22091456 12.46334518 -16.94140625 11.21875 C-12.37034524 10.04707838 -8.63684658 9.81106498 -4 11 C-4.33 10.01 -4.66 9.02 -5 8 C-9.54805635 7.82164485 -12.8794254 8.00214565 -17 10 C-17.66 8.02 -18.32 6.04 -19 4 C-12.89672822 -0.43874311 -7.45051284 -1.00254776 0 0 Z M-13.3125 17.4375 C-13.869375 17.953125 -14.42625 18.46875 -15 19 C-14.67 20.32 -14.34 21.64 -14 23 C-9.2102679 23.23428313 -9.2102679 23.23428313 -5 21 C-5.33 19.68 -5.66 18.36 -6 17 C-9.79735079 15.82620426 -9.79735079 15.82620426 -13.3125 17.4375 Z " fill="#FFFFFF" transform="translate(249,542)"/>
<path d="M0 0 C2.7102757 3.83176909 2.39747381 7.10207466 1.8125 11.5625 C0.93083652 16.59198942 -0.0840971 21.57748333 -1.1875 26.5625 C-2.23550781 26.54509766 -2.23550781 26.54509766 -3.3046875 26.52734375 C-4.21476562 26.51832031 -5.12484375 26.50929688 -6.0625 26.5 C-6.96742188 26.48839844 -7.87234375 26.47679687 -8.8046875 26.46484375 C-11.2043585 26.40000743 -11.2043585 26.40000743 -13.1875 27.5625 C-17.44311995 28.06364443 -20.99658635 28.25962018 -24.75 26.0625 C-26.76519573 22.55781177 -26.92169583 19.44987371 -26.1875 15.5625 C-24.63638639 12.46027277 -23.39751064 11.05070893 -20.1640625 9.74609375 C-14.86538713 8.30839856 -11.28096649 8.61181071 -6.1875 10.5625 C-6.8475 9.2425 -7.5075 7.9225 -8.1875 6.5625 C-12.73555635 6.38414485 -16.0669254 6.56464565 -20.1875 8.5625 C-20.8475 6.5825 -21.5075 4.6025 -22.1875 2.5625 C-15.03130281 -1.75822283 -7.9275471 -3.5751683 0 0 Z M-16.5 16 C-17.056875 16.515625 -17.61375 17.03125 -18.1875 17.5625 C-17.8575 18.8825 -17.5275 20.2025 -17.1875 21.5625 C-12.3977679 21.79678313 -12.3977679 21.79678313 -8.1875 19.5625 C-8.5175 18.2425 -8.8475 16.9225 -9.1875 15.5625 C-12.98485079 14.38870426 -12.98485079 14.38870426 -16.5 16 Z " fill="#FFFFFF" transform="translate(499.1875,543.4375)"/>
<path d="M0 0 C3.3125 1.8125 3.3125 1.8125 5 5 C5.55308111 12.7688603 3.05750059 20.58523371 1 28 C0.38511719 27.98839844 -0.22976562 27.97679687 -0.86328125 27.96484375 C-2.07564453 27.95130859 -2.07564453 27.95130859 -3.3125 27.9375 C-4.11300781 27.92589844 -4.91351563 27.91429687 -5.73828125 27.90234375 C-8.16861334 27.90342145 -8.16861334 27.90342145 -11 29 C-18.03255814 29.44651163 -18.03255814 29.44651163 -21.4375 27.875 C-23.6161345 25.2606386 -23.86489008 23.37774807 -24 20 C-22.93437742 15.52438514 -20.87330118 13.41005407 -17 11 C-12.29003174 9.82250793 -9.33782222 9.76536431 -5 12 C-5 10.68 -5 9.36 -5 8 C-9.54805635 7.82164485 -12.8794254 8.00214565 -17 10 C-17.66 8.02 -18.32 6.04 -19 4 C-13.13062893 -0.65501843 -7.30009093 -0.81548795 0 0 Z M-15 18 C-14.67 19.65 -14.34 21.3 -14 23 C-9.85906302 23.20970559 -9.85906302 23.20970559 -6 22 C-5.34786708 19.97536745 -5.34786708 19.97536745 -5 18 C-9.09913608 15.26724261 -10.90086392 15.26724261 -15 18 Z " fill="#FFFFFF" transform="translate(98,542)"/>
<path d="M0 0 C2.58166845 2.33182957 3.75358916 4.43635116 4.23828125 7.8984375 C4.26486038 12.94847211 3.88803053 16.46697181 0.9375 20.75 C-3.69259147 25.41292899 -7.20582629 27.87723391 -13.9375 28 C-18.12692929 27.95114368 -20.80463075 27.60063559 -24.0625 24.75 C-26.78506855 20.25437079 -26.79926772 15.86132604 -26.0625 10.75 C-24.14074446 5.72255024 -21.02128182 1.77160287 -16.15625 -0.62890625 C-10.76788691 -2.22731993 -5.18526048 -2.11643285 0 0 Z M-14.75 7.875 C-17.31191501 11.06008352 -18.14925027 12.67273732 -18.0625 16.75 C-16.58256844 19.31338689 -16.58256844 19.31338689 -14.0625 20.75 C-10.54321818 20.83798205 -9.33849729 20.00361913 -6.75 17.625 C-4.64627212 14.04087102 -4.52211172 11.84151124 -5.0625 7.75 C-9.07840844 5.07272771 -10.91412177 4.84198 -14.75 7.875 Z " fill="#FFFFFF" transform="translate(808.0625,543.25)"/>
<path d="M0 0 C2.76272169 3.53973716 3.6705222 7.10670505 4 11.5625 C3.67 12.8825 3.34 14.2025 3 15.5625 C-3.6 15.5625 -10.2 15.5625 -17 15.5625 C-16.34 16.8825 -15.68 18.2025 -15 19.5625 C-8.91591528 19.76064261 -8.91591528 19.76064261 -3 18.5625 C-1 21.5625 -1 21.5625 -1 24.5625 C-6.67094117 27.52125192 -11.61034563 28.50989521 -18 27.5625 C-21.48791684 25.88082581 -23.32173907 24.59463619 -25.4375 21.375 C-26.5400585 15.86220751 -25.87205511 11.21317575 -23.25 6.25 C-17.18991199 -0.98843845 -8.95734901 -4.29206307 0 0 Z M-13 5.5625 C-14.485 7.5425 -14.485 7.5425 -16 9.5625 C-12.04 9.5625 -8.08 9.5625 -4 9.5625 C-4.66 8.2425 -5.32 6.9225 -6 5.5625 C-9.37436186 5.22869186 -9.37436186 5.22869186 -13 5.5625 Z " fill="#FFFFFF" transform="translate(676,543.4375)"/>
<path d="M0 0 C2.76127467 3.65200843 3.77211069 6.99174081 3.9375 11.5625 C2.97873169 16.62769109 0.63342056 20.9692439 -3.0625 24.5625 C-8.33993124 27.56339228 -13.11257542 28.37893702 -19.0625 27.5625 C-23.24709301 25.83408115 -25.26968739 23.71427657 -27.0625 19.5625 C-27.84262515 13.65583813 -26.36402536 9.37848654 -23.0625 4.5625 C-16.97047631 -1.87945716 -8.15747533 -3.82901903 0 0 Z M-17.0625 9.5625 C-18.46185013 12.36120027 -18.31515405 14.46748792 -18.0625 17.5625 C-17.08201062 19.62652685 -17.08201062 19.62652685 -15.0625 20.5625 C-12.04750142 20.79700072 -12.04750142 20.79700072 -9.0625 19.5625 C-6.58102337 16.68921127 -5.23723599 14.63587822 -4.625 10.875 C-4.9080189 8.52484754 -4.9080189 8.52484754 -6.3125 6.75 C-10.8004873 3.70458005 -13.69645568 6.4693782 -17.0625 9.5625 Z " fill="#FFFFFF" transform="translate(327.0625,543.4375)"/>
<path d="M0 0 C2.65754842 1.65877747 3.52933717 3.23895986 4.77734375 6.109375 C5.50056931 12.41176914 4.42730985 16.88557031 0.77734375 22.109375 C-2.48955943 25.55540341 -5.67289152 27.88464997 -10.52734375 28.3125 C-19.23808325 28.47135847 -19.23808325 28.47135847 -23.22265625 25.109375 C-26.22203497 20.61030693 -25.91391859 16.38025036 -25.22265625 11.109375 C-23.34833294 6.05539607 -20.17807183 2.13942757 -15.3203125 -0.2734375 C-10.44143801 -1.70893502 -4.75185832 -1.90408383 0 0 Z M-13.91015625 8.234375 C-16.47207126 11.41945852 -17.30940652 13.03211232 -17.22265625 17.109375 C-15.74272469 19.67276189 -15.74272469 19.67276189 -13.22265625 21.109375 C-9.70337443 21.19735705 -8.49865354 20.36299413 -5.91015625 17.984375 C-3.80642837 14.40024602 -3.68226797 12.20088624 -4.22265625 8.109375 C-8.23856469 5.43210271 -10.07427802 5.201355 -13.91015625 8.234375 Z " fill="#FFFFFF" transform="translate(54.22265625,542.890625)"/>
<path d="M0 0 C2.64 0 5.28 0 8 0 C7.48462048 7.13393752 6.55994099 14.01812817 5 21 C8.96 20.505 8.96 20.505 13 20 C15.03690067 14.37815414 16.53382452 8.8603659 17.5703125 2.96875 C18 1 18 1 19 0 C21.67058851 -0.14115161 24.32432238 -0.04247107 27 0 C25.93117107 6.75248392 24.75333747 13.47907139 23.4375 20.1875 C23.18871094 21.45980469 22.93992188 22.73210938 22.68359375 24.04296875 C22 27 22 27 21 28 C18.47690571 28.07234679 15.96851553 27.99635022 13.4453125 27.9375 C10.85988991 27.88454506 10.85988991 27.88454506 8 29 C1.07329843 29.54973822 1.07329843 29.54973822 -2.5625 27.6875 C-6.67804918 19.9932124 -1.85065844 7.97296247 0 0 Z " fill="#FFFFFF" transform="translate(145,542)"/>
<path d="M0 0 C2.64 0 5.28 0 8 0 C8 0.66 8 1.32 8 2 C8.55558594 1.67644531 9.11117187 1.35289062 9.68359375 1.01953125 C12.31230076 -0.13745447 14.20102131 -0.29955213 17.0625 -0.3125 C18.34833984 -0.33763672 18.34833984 -0.33763672 19.66015625 -0.36328125 C22 0 22 0 23.78515625 1.28515625 C26.67323766 5.36190139 25.11949907 11.27866016 24.35546875 15.890625 C22.32546586 26.67453414 22.32546586 26.67453414 21 28 C18.32941149 28.14115161 15.67567762 28.04247107 13 28 C13.144375 27.14277344 13.28875 26.28554688 13.4375 25.40234375 C14.38858888 19.54390042 15.2761941 13.93817322 15 8 C10.87026372 8.56739868 10.87026372 8.56739868 7 10 C6.34626641 11.82822197 6.34626641 11.82822197 5.9296875 14.03515625 C5.75566406 14.84404297 5.58164062 15.65292969 5.40234375 16.48632812 C5.22832031 17.33646484 5.05429687 18.18660156 4.875 19.0625 C4.69324219 19.91650391 4.51148438 20.77050781 4.32421875 21.65039062 C3.87523658 23.76533296 3.43664649 25.88247647 3 28 C0.36 28 -2.28 28 -5 28 C-4.37922374 21.52432348 -3.33183542 15.28837757 -1.9375 8.9375 C-1.75123047 8.07189453 -1.56496094 7.20628906 -1.37304688 6.31445312 C-0.91933733 4.20877549 -0.46023996 2.10425993 0 0 Z " fill="#FFFFFF" transform="translate(556,542)"/>
<path d="M0 0 C3.6875 1.5 3.6875 1.5 6 3 C3.375 7.875 3.375 7.875 0 9 C-0.598125 8.690625 -1.19625 8.38125 -1.8125 8.0625 C-4.6346995 6.69171739 -6.9033529 6.85924331 -10 7 C-8.53073487 9.93853026 -6.55564859 10.02688714 -3.5 11.0625 C1.90998043 12.90998043 1.90998043 12.90998043 3 14 C3.50191698 17.0750357 3.56849597 19.93325109 3 23 C0.87036519 25.80456523 -1.85899669 27.42949835 -5 29 C-11.33058054 29.53789246 -16.51174113 29.5599517 -22 26 C-21.52693208 21.5058548 -21.52693208 21.5058548 -19.4375 19.5 C-16.06324857 18.80784586 -13.97411686 19.96196943 -10.90234375 21.37109375 C-8.81638834 22.2710324 -8.81638834 22.2710324 -6 21 C-5.67 20.34 -5.34 19.68 -5 19 C-5.59167969 18.91363281 -6.18335938 18.82726562 -6.79296875 18.73828125 C-10.96575446 17.99630141 -13.63139978 17.26539216 -17.125 14.75 C-19 12 -19 12 -19.125 9 C-15.64504802 -0.27987195 -8.70187673 -0.73433559 0 0 Z " fill="#FFFFFF" transform="translate(747,542)"/>
<path d="M0 0 C3.6875 1.5 3.6875 1.5 6 3 C3.375 7.875 3.375 7.875 0 9 C-0.598125 8.690625 -1.19625 8.38125 -1.8125 8.0625 C-4.6346995 6.69171739 -6.9033529 6.85924331 -10 7 C-8.53073487 9.93853026 -6.55564859 10.02688714 -3.5 11.0625 C1.90998043 12.90998043 1.90998043 12.90998043 3 14 C3.50191698 17.0750357 3.56849597 19.93325109 3 23 C0.87036519 25.80456523 -1.85899669 27.42949835 -5 29 C-11.33058054 29.53789246 -16.51174113 29.5599517 -22 26 C-21.52693208 21.5058548 -21.52693208 21.5058548 -19.4375 19.5 C-16.06324857 18.80784586 -13.97411686 19.96196943 -10.90234375 21.37109375 C-8.81638834 22.2710324 -8.81638834 22.2710324 -6 21 C-5.67 20.34 -5.34 19.68 -5 19 C-5.59167969 18.91363281 -6.18335938 18.82726562 -6.79296875 18.73828125 C-10.96575446 17.99630141 -13.63139978 17.26539216 -17.125 14.75 C-19 12 -19 12 -19.125 9 C-15.64504802 -0.27987195 -8.70187673 -0.73433559 0 0 Z " fill="#FFFFFF" transform="translate(22,542)"/>
<path d="M0 0 C2.97 0 5.94 0 9 0 C11.29612756 11.52164009 11.29612756 11.52164009 11 17 C11.66 17 12.32 17 13 17 C13.26683594 16.13117187 13.53367187 15.26234375 13.80859375 14.3671875 C15.7004088 9.02048399 18.11049846 4.17356626 22 0 C25.19194921 -0.91705207 27.7817641 -0.72246112 31 0 C29.45395901 3.39958185 27.74206976 6.69685475 26 10 C25.61875977 10.73927734 25.23751953 11.47855469 24.84472656 12.24023438 C23.54170618 14.72645717 22.18315067 17.17550063 20.8125 19.625 C20.39186279 20.44339355 19.97122559 21.26178711 19.5378418 22.10498047 C18.17909045 24.46254243 17.06694083 26.22346521 15 28 C11.55714891 28.68869992 8.45864165 28.51349524 5 28 C4.16011547 24.08470852 3.32923187 20.16756028 2.5 16.25 C2.26152344 15.13882813 2.02304687 14.02765625 1.77734375 12.8828125 C1.55175781 11.81289063 1.32617188 10.74296875 1.09375 9.640625 C0.88427734 8.65610352 0.67480469 7.67158203 0.45898438 6.65722656 C0 4 0 4 0 0 Z " fill="#FFFFFF" transform="translate(258,542)"/>
<path d="M0 0 C3.1875 2 3.1875 2 5 4 C3.86695008 7.39914975 2.87481525 8.05254451 0 10 C-0.515625 9.649375 -1.03125 9.29875 -1.5625 8.9375 C-5.09106096 7.58036117 -7.38775116 8.01484123 -11 9 C-13.17020292 11.08921756 -13.17020292 11.08921756 -14 14 C-13.78150791 17.23556199 -13.78150791 17.23556199 -13 20 C-8.70700357 21.26264601 -6.12168689 20.62950412 -2 19 C-0.4375 20.25 -0.4375 20.25 1 22 C1.0625 24 1.0625 24 0 26 C-4.96079142 29.56159384 -10.11523476 29.73682369 -16 29 C-19.68623011 27.38727433 -20.75355 26.369675 -23 23 C-23.83945416 17.53029345 -23.72060024 12.43292541 -20.9375 7.5625 C-15.55956672 0.26708634 -8.86820456 -1.42109904 0 0 Z " fill="#FFFFFF" transform="translate(777,542)"/>
<path d="M0 0 C2.64 0 5.28 0 8 0 C7.67 2.31 7.34 4.62 7 7 C8.65 7 10.3 7 12 7 C11.67 9.64 11.34 12.28 11 15 C9.02 15 7.04 15 5 15 C4.67 19.29 4.34 23.58 4 28 C5.32 28 6.64 28 8 28 C8 30.31 8 32.62 8 35 C5.67313547 36.16343227 4.15278587 36.19895988 1.5625 36.25 C0.78003906 36.27578125 -0.00242187 36.3015625 -0.80859375 36.328125 C-3 36 -3 36 -4.796875 34.8125 C-7.26714379 31.0910561 -5.68803478 26.1923475 -5 22 C-4.44793119 19.59808867 -3.78046074 17.34138222 -3 15 C-4.32 15 -5.64 15 -7 15 C-6.67 12.36 -6.34 9.72 -6 7 C-4.35 7 -2.7 7 -1 7 C-0.67 4.69 -0.34 2.38 0 0 Z " fill="#FFFFFF" transform="translate(639,535)"/>
<path d="M0 0 C2.64 0 5.28 0 8 0 C7.67 2.31 7.34 4.62 7 7 C8.65 7 10.3 7 12 7 C11.67 9.64 11.34 12.28 11 15 C9.02 15 7.04 15 5 15 C4.34 19.62 3.68 24.24 3 29 C4.32 28.67 5.64 28.34 7 28 C7.33 29.98 7.66 31.96 8 34 C4.18410122 36.54393252 1.4700353 36.57737956 -3 36 C-5 34.9375 -5 34.9375 -6 33 C-6.59526733 27.16638015 -5.27612266 21.66279432 -4 16 C-5.32 15.67 -6.64 15.34 -8 15 C-7.67 12.69 -7.34 10.38 -7 8 C-6.21625 7.79375 -5.4325 7.5875 -4.625 7.375 C-1.69083714 6.19323388 -1.69083714 6.19323388 -0.6875 2.875 C-0.460625 1.92625 -0.23375 0.9775 0 0 Z " fill="#FFFFFF" transform="translate(386,535)"/>
<path d="M0 0 C2.64 0 5.28 0 8 0 C7.67 2.31 7.34 4.62 7 7 C8.65 7 10.3 7 12 7 C11.67 9.64 11.34 12.28 11 15 C9.02 15 7.04 15 5 15 C4.67 19.29 4.34 23.58 4 28 C5.32 28 6.64 28 8 28 C8 30.31 8 32.62 8 35 C4.54072137 36.72963932 0.78260927 36.47023296 -3 36 C-5.125 34.5625 -5.125 34.5625 -6 32 C-6.03427341 26.18494514 -4.51979924 20.57259722 -3 15 C-4.32 15 -5.64 15 -7 15 C-6.67 12.36 -6.34 9.72 -6 7 C-4.35 7 -2.7 7 -1 7 C-0.67 4.69 -0.34 2.38 0 0 Z " fill="#FFFFFF" transform="translate(195,535)"/>
<path d="M0 0 C2.64 0 5.28 0 8 0 C7.29244778 8.15924147 5.63787499 16.0604471 3.9375 24.0625 C3.65260708 25.4185384 3.36809891 26.77465768 3.08398438 28.13085938 C2.3930909 31.42138594 1.69833305 34.71104574 1 38 C-1.97 38 -4.94 38 -8 38 C-7.02515646 32.90893943 -6.04647821 27.81863699 -5.06420898 22.72900391 C-4.73046555 20.99678614 -4.39777848 19.26436451 -4.06616211 17.53173828 C-3.58984262 15.04405471 -3.1097524 12.55712454 -2.62890625 10.0703125 C-2.48095108 9.29317902 -2.33299591 8.51604553 -2.18055725 7.71536255 C-1.11387171 2.22774341 -1.11387171 2.22774341 0 0 Z " fill="#FFFFFF" transform="translate(180,532)"/>
<path d="M0 0 C1.00563995 -0.00087616 2.01127991 -0.00175232 3.0473938 -0.00265503 C6.35409639 0.00150774 9.658742 0.04810019 12.96508789 0.09521484 C15.26435742 0.10641158 17.56364131 0.11494951 19.8629303 0.12094116 C25.90161975 0.14380144 31.93943722 0.20270212 37.9777832 0.26916504 C44.14465541 0.33064708 50.31166912 0.35796892 56.47875977 0.38818359 C68.56963674 0.45244678 80.6598678 0.55479357 92.75024414 0.68115234 C90.75024414 3.68115234 90.75024414 3.68115234 88.90393925 4.05753326 C88.15012187 4.05824577 87.39630449 4.05895828 86.61964417 4.05969238 C85.75457245 4.06789505 84.88950073 4.07609772 83.99821472 4.08454895 C83.04699234 4.07840073 82.09576996 4.0722525 81.11572266 4.06591797 C79.61558624 4.07397713 79.61558624 4.07397713 78.08514404 4.0821991 C75.90854898 4.09200072 73.73191473 4.09491409 71.55529976 4.09184265 C68.11381868 4.08738247 64.67285671 4.10131385 61.23143005 4.12023926 C53.92521002 4.15710485 46.61904352 4.17074587 39.31274414 4.18115234 C30.85228983 4.19320901 22.39208675 4.2146537 13.93174553 4.26115417 C10.53533592 4.27477726 7.13923958 4.2705436 3.74281311 4.26574707 C1.66659133 4.27508427 -0.40962693 4.28525222 -2.48583984 4.29638672 C-3.43503799 4.29023849 -4.38423615 4.28409027 -5.36219788 4.27775574 C-6.66403519 4.29005974 -6.66403519 4.29005974 -7.99217224 4.3026123 C-8.74636664 4.30332481 -9.50056105 4.30403732 -10.27760983 4.30477142 C-12.75738312 4.7780322 -13.6574165 5.77594582 -15.24975586 7.68115234 C-15.90975586 7.35115234 -16.56975586 7.02115234 -17.24975586 6.68115234 C-11.90176389 0.79582392 -7.78410874 -0.17902284 0 0 Z " fill="#030101" transform="translate(720.249755859375,48.31884765625)"/>
<path d="M0 0 C2.97 0 5.94 0 9 0 C8.02515646 5.09106057 7.04647821 10.18136301 6.06420898 15.27099609 C5.73046555 17.00321386 5.39777848 18.73563549 5.06616211 20.46826172 C4.58984262 22.95594529 4.1097524 25.44287546 3.62890625 27.9296875 C3.4069735 29.09538773 3.4069735 29.09538773 3.18055725 30.28463745 C2.11387171 35.77225659 2.11387171 35.77225659 1 38 C-1.64 38 -4.28 38 -7 38 C-5.2977958 25.22076551 -2.58226388 12.62358142 0 0 Z " fill="#FFFFFF" transform="translate(339,532)"/>
<path d="M0 0 C2.64 0 5.28 0 8 0 C6.2977958 12.77923449 3.58226388 25.37641858 1 38 C-1.97 38 -4.94 38 -8 38 C-7.02515646 32.90893943 -6.04647821 27.81863699 -5.06420898 22.72900391 C-4.73046555 20.99678614 -4.39777848 19.26436451 -4.06616211 17.53173828 C-3.58984262 15.04405471 -3.1097524 12.55712454 -2.62890625 10.0703125 C-2.48095108 9.29317902 -2.33299591 8.51604553 -2.18055725 7.71536255 C-1.11387171 2.22774341 -1.11387171 2.22774341 0 0 Z " fill="#FFFFFF" transform="translate(68,532)"/>
<path d="M0 0 C2.64 0 5.28 0 8 0 C7.44322254 8.38714887 5.7559147 16.43158618 3.9375 24.625 C3.65248001 25.92827294 3.36797132 27.23165781 3.08398438 28.53515625 C2.39432225 31.69123718 1.69955412 34.84609966 1 38 C-1.64 38 -4.28 38 -7 38 C-6.29244778 29.84075853 -4.63787499 21.9395529 -2.9375 13.9375 C-2.65260708 12.5814616 -2.36809891 11.22534232 -2.08398438 9.86914062 C-1.3930909 6.57861406 -0.69833305 3.28895426 0 0 Z " fill="#FFFFFF" transform="translate(688,532)"/>
<path d="M0 0 C2.64 0 5.28 0 8 0 C8 0.66 8 1.32 8 2 C8.556875 1.67 9.11375 1.34 9.6875 1 C12.30284522 -0.1309601 14.1806646 -0.15662974 17 0 C16.67 2.64 16.34 5.28 16 8 C14.3603125 8.2165625 14.3603125 8.2165625 12.6875 8.4375 C9.06877013 8.88288104 9.06877013 8.88288104 6 10 C5.95101562 10.6290625 5.90203125 11.258125 5.8515625 11.90625 C5.36564801 17.46913314 4.49446374 22.61993052 3 28 C0.36 28 -2.28 28 -5 28 C-4.38277416 18.43299944 -2.1798659 9.30752043 0 0 Z " fill="#FFFFFF" transform="translate(211,542)"/>
<path d="M0 0 C1.39586842 0.01833223 2.79170577 0.0391936 4.1875 0.0625 C5.5075 0.0625 6.8275 0.0625 8.1875 0.0625 C9.5075 0.0625 10.8275 0.0625 12.1875 0.0625 C11.8575 2.7025 11.5275 5.3425 11.1875 8.0625 C8.5475 8.7225 5.9075 9.3825 3.1875 10.0625 C2.99414062 10.85914063 2.80078125 11.65578125 2.6015625 12.4765625 C0.01526801 23.00098858 0.01526801 23.00098858 -1.8125 28.0625 C-4.4525 28.0625 -7.0925 28.0625 -9.8125 28.0625 C-9.00633358 23.58216905 -8.19151403 19.10345575 -7.375 14.625 C-7.14490234 13.34560547 -6.91480469 12.06621094 -6.67773438 10.74804688 C-6.45537109 9.53310547 -6.23300781 8.31816406 -6.00390625 7.06640625 C-5.79967041 5.94049072 -5.59543457 4.8145752 -5.38500977 3.65454102 C-4.48809277 -0.40625545 -4.43922814 0.07277423 0 0 Z " fill="#FFFFFF" transform="translate(114.8125,541.9375)"/>
<path d="M0 0 C2.64 0 5.28 0 8 0 C7.37922374 6.47567652 6.33183542 12.71162243 4.9375 19.0625 C4.75123047 19.92810547 4.56496094 20.79371094 4.37304688 21.68554688 C3.91933733 23.79122451 3.46023996 25.89574007 3 28 C0.03 28 -2.94 28 -6 28 C-5.19230332 23.70741475 -4.37803415 19.41610255 -3.5625 15.125 C-3.33240234 13.90167969 -3.10230469 12.67835938 -2.86523438 11.41796875 C-2.64287109 10.25136719 -2.42050781 9.08476563 -2.19140625 7.8828125 C-1.98717041 6.80402832 -1.78293457 5.72524414 -1.57250977 4.61376953 C-1 2 -1 2 0 0 Z " fill="#FFFFFF" transform="translate(542,542)"/>
<path d="M0 0 C2.64 0 5.28 0 8 0 C6.65113611 9.41030923 4.93049016 18.69503742 3 28 C0.03 28 -2.94 28 -6 28 C-5.19230332 23.70741475 -4.37803415 19.41610255 -3.5625 15.125 C-3.33240234 13.90167969 -3.10230469 12.67835938 -2.86523438 11.41796875 C-2.64287109 10.25136719 -2.42050781 9.08476563 -2.19140625 7.8828125 C-1.98717041 6.80402832 -1.78293457 5.72524414 -1.57250977 4.61376953 C-1 2 -1 2 0 0 Z " fill="#FFFFFF" transform="translate(291,542)"/>
<path d="M0 0 C2.64 0 5.28 0 8 0 C7.38277416 9.56700056 5.1798659 18.69247957 3 28 C0.36 28 -2.28 28 -5 28 C-4.37922374 21.52432348 -3.33183542 15.28837757 -1.9375 8.9375 C-1.75123047 8.07189453 -1.56496094 7.20628906 -1.37304688 6.31445312 C-0.91933733 4.20877549 -0.46023996 2.10425993 0 0 Z " fill="#FFFFFF" transform="translate(416,542)"/>
<path d="M0 0 C0.66 0.33 1.32 0.66 2 1 C1.37110367 1.53201019 0.74220734 2.06402039 0.09425354 2.6121521 C-2.44937243 5.51237015 -2.83989877 7.42662748 -3.50805664 11.20556641 C-3.73832047 12.46011627 -3.96858429 13.71466614 -4.20582581 15.00723267 C-4.32058321 15.67445972 -4.43534061 16.34168678 -4.55357552 17.02913284 C-4.91414887 19.12476743 -5.29385165 21.21613765 -5.67857361 23.3074646 C-6.49083601 27.7435614 -7.27743121 32.18402411 -8.0625 36.625 C-8.97643532 41.77870693 -9.90077844 46.93027338 -10.84493828 52.07853317 C-11.21844728 54.14082314 -11.57615068 56.2054529 -11.93312073 58.2706604 C-12.16023239 59.51890594 -12.38734406 60.76715149 -12.62133789 62.05322266 C-12.81578995 63.15590485 -13.010242 64.25858704 -13.21058655 65.39468384 C-14 68 -14 68 -17 70 C-16.05714028 58.7156749 -13.98612243 47.63915714 -11.98168945 36.50390625 C-11.53459805 33.99588825 -11.09745966 31.48607611 -10.67016602 28.97460938 C-10.04907524 25.32757578 -9.39714035 21.68725106 -8.73828125 18.046875 C-8.55364822 16.92802917 -8.3690152 15.80918335 -8.17878723 14.65643311 C-6.90512033 7.86193304 -5.46114835 4.3380003 0 0 Z " fill="#050404" transform="translate(701,56)"/>
<path d="M0 0 C2.3125 0.3125 2.3125 0.3125 3.3125 1.3125 C2.5925 8.0325 2.5925 8.0325 1.3125 9.3125 C-0.68708364 9.35330783 -2.68795254 9.35504356 -4.6875 9.3125 C-5.3475 7.6625 -6.0075 6.0125 -6.6875 4.3125 C-3.38048952 0.39308018 -3.38048952 0.39308018 0 0 Z " fill="#FFFFFF" transform="translate(297.6875,530.6875)"/>
<path d="M0 0 C1 1 1 1 1.1875 3.9375 C1 7 1 7 -1 9 C-4.0625 9.1875 -4.0625 9.1875 -7 9 C-8 8 -8 8 -8.25 5.0625 C-8.1675 4.051875 -8.085 3.04125 -8 2 C-4.77786243 -0.14809171 -3.72224599 -0.29386153 0 0 Z " fill="#FFFFFF" transform="translate(551,531)"/>
<path d="M0 0 C1.1875 1.6875 1.1875 1.6875 2 4 C1 6.75 1 6.75 -1 9 C-4.125 9.375 -4.125 9.375 -7 9 C-8 8 -8 8 -8.25 5.625 C-8 3 -8 3 -6.8125 1.1875 C-4.44017475 -0.36678206 -2.77958655 -0.22537188 0 0 Z " fill="#FFFFFF" transform="translate(425,531)"/>
<path d="M0 0 C0.33 0.99 0.66 1.98 1 3 C-1.89444095 3.6732656 -4.79030013 4.33880404 -7.6875 5 C-8.50412109 5.19078125 -9.32074219 5.3815625 -10.16210938 5.578125 C-14.17239326 6.48733916 -17.85717252 7.27000098 -22 7 C-21.67 6.34 -21.34 5.68 -21 5 C-18.60049643 4.2159452 -16.25637894 3.54673238 -13.8125 2.9375 C-13.15185547 2.76412109 -12.49121094 2.59074219 -11.81054688 2.41210938 C-7.89682786 1.40373755 -3.99550215 0.60274294 0 0 Z " fill="#5BA8BB" transform="translate(806,147)"/>
<path d="M0 0 C1.59190467 3.18380933 0.28749598 6.28076324 -0.4375 9.625 C-0.58509766 10.33140625 -0.73269531 11.0378125 -0.88476562 11.765625 C-1.25049493 13.51168749 -1.62447121 15.25601884 -2 17 C-2.66 17 -3.32 17 -4 17 C-3.91297874 14.72844502 -3.80480478 12.45769257 -3.6875 10.1875 C-3.62949219 8.92292969 -3.57148437 7.65835938 -3.51171875 6.35546875 C-3 3 -3 3 -1.45703125 1.05078125 C-0.97621094 0.70402344 -0.49539063 0.35726562 0 0 Z " fill="#55A5B8" transform="translate(686,124)"/>
<path d="M0 0 C0.66 0.66 1.32 1.32 2 2 C1.9765625 4.6015625 1.9765625 4.6015625 1.625 7.625 C1.51414062 8.62789062 1.40328125 9.63078125 1.2890625 10.6640625 C1.19367187 11.43492188 1.09828125 12.20578125 1 13 C0.34 13 -0.32 13 -1 13 C-0.67 8.71 -0.34 4.42 0 0 Z " fill="#B18D03" transform="translate(969,91)"/>
<path d="M0 0 C-3.53411321 2.12046792 -6.94393835 2.53199289 -11 3 C-11.33 2.01 -11.66 1.02 -12 0 C-7.74433453 -1.16063604 -4.3164922 -0.76173392 0 0 Z " fill="#BD9D22" transform="translate(897,129)"/>
<path d="M0 0 C0.99 0.33 1.98 0.66 3 1 C2.67 2.65 2.34 4.3 2 6 C1.34 6 0.68 6 0 6 C-0.33 6.66 -0.66 7.32 -1 8 C-0.67 5.36 -0.34 2.72 0 0 Z " fill="#B9960C" transform="translate(967,103)"/>
</svg>
