<?xml version="1.0" standalone="no"?>
<!DOCTYPE svg PUBLIC "-//W3C//DTD SVG 20010904//EN"
 "http://www.w3.org/TR/2001/REC-SVG-20010904/DTD/svg10.dtd">
<svg version="1.0" xmlns="http://www.w3.org/2000/svg"
 width="752.000000pt" height="752.000000pt" viewBox="0 0 752.000000 752.000000"
 preserveAspectRatio="xMidYMid meet">

<g transform="translate(0.000000,752.000000) scale(0.100000,-0.100000)"
fill="#000000" stroke="none">
<path d="M3657 5792 c-54 -174 -111 -345 -128 -380 -40 -83 -127 -170 -204
-207 -70 -33 -188 -45 -273 -26 -91 19 -171 68 -462 281 -157 115 -286 208
-287 206 -1 -1 51 -143 116 -316 65 -173 124 -339 131 -369 16 -68 8 -201 -15
-256 -46 -107 -141 -187 -269 -228 -80 -25 -145 -26 -621 -13 l-250 8 145 -95
c80 -53 218 -143 308 -202 189 -124 249 -180 299 -281 32 -66 36 -81 36 -154
0 -73 -4 -88 -37 -154 -50 -102 -114 -162 -305 -286 -89 -58 -225 -147 -304
-198 l-142 -93 270 7 c475 13 521 12 601 -13 128 -41 223 -121 269 -228 23
-55 31 -188 15 -256 -7 -30 -51 -155 -98 -279 -46 -124 -100 -267 -118 -318
l-34 -93 53 38 c29 21 157 115 285 208 324 237 373 261 536 253 74 -3 102 -10
151 -33 78 -37 164 -124 204 -207 17 -35 74 -206 128 -380 54 -175 100 -318
103 -318 3 0 49 143 103 318 54 174 112 346 129 382 40 83 124 167 203 205 46
22 79 29 141 33 165 9 225 -19 536 -246 126 -92 256 -186 288 -210 l59 -43
-33 93 c-19 51 -72 195 -119 320 -100 266 -111 310 -105 414 10 173 114 292
303 350 67 21 139 22 590 10 l270 -7 -160 105 c-88 57 -224 146 -303 198 -175
113 -240 176 -289 275 -33 67 -37 83 -37 153 0 70 4 86 37 153 49 99 110 157
286 273 80 53 218 143 306 201 l160 104 -250 -7 c-455 -12 -543 -11 -610 9
-134 42 -222 111 -271 215 -33 69 -43 185 -24 269 6 31 65 198 131 371 65 174
117 317 116 318 -1 1 -130 -92 -287 -206 -371 -272 -421 -296 -588 -288 -69 4
-99 10 -147 33 -75 36 -163 123 -201 201 -17 33 -74 204 -129 382 -55 177
-102 322 -105 322 -3 0 -49 -143 -103 -318z m328 -778 c511 -83 937 -509 1030
-1029 21 -118 21 -332 0 -450 -93 -520 -510 -937 -1030 -1030 -116 -21 -332
-21 -446 -1 -524 94 -941 510 -1034 1031 -21 118 -21 332 0 450 69 385 323
728 671 907 256 131 512 170 809 122z"/>
<path d="M3595 4846 c-303 -48 -579 -223 -747 -476 -404 -608 -122 -1421 574
-1655 90 -30 244 -55 338 -55 287 0 573 121 781 330 367 370 421 944 131 1380
-234 352 -662 540 -1077 476z"/>
</g>
</svg>
